<svg xmlns="http://www.w3.org/2000/svg" data-name="Layer 1" viewBox="0 0 384 383.26"><path d="M204.8,443.71a11.25,11.25,0,1,0-22.47-1A23,23,0,0,1,148.75,462c-17.86-9.41-15.49-35.64,3.34-42a11.25,11.25,0,0,0,7.67-10.66V329.68l-22.5-22.5v94.93c-30.83,17.16-31.31,62.81,1,79.83,29.49,15.52,65.1-5.1,66.53-38.23Zm0,0" transform="translate(-114 -204.37)"></path><path d="M486.75,475.13A11.25,11.25,0,0,0,498,463.88v-75a26.29,26.29,0,0,0-26.25-26.25h-42v56.25a11.25,11.25,0,0,1-11.25,11.25H261v33.75a11.25,11.25,0,0,0,11.25,11.25h30.38v22.5H227.25a45,45,0,0,0,0,90H453a45,45,0,0,0,0-90H377.63v-22.5Zm-259.5,90a22.5,22.5,0,1,1,22.5-22.5,22.52,22.52,0,0,1-22.5,22.5Zm225.75-45a22.5,22.5,0,1,1-22.5,22.5,22.52,22.52,0,0,1,22.5-22.5Zm-38.95,45H266.2a44.84,44.84,0,0,0,0-45H414.05a44.87,44.87,0,0,0,0,45Zm0,0" transform="translate(-114 -204.37)"></path><path d="M238.5,376.61V328.88a78.17,78.17,0,0,1,9.78-38l-76.66-76.65A33.75,33.75,0,1,0,123.89,262Zm0,0" transform="translate(-114 -204.37)"></path><path d="M407.25,272.63h-90A56.32,56.32,0,0,0,261,328.88v78.75H407.25Zm0,0" transform="translate(-114 -204.37)"></path></svg>