<svg xmlns="http://www.w3.org/2000/svg" width="150" height="150" viewBox="0 0 150 150">
    <path d="M124.47 47.26V.01H25.53v47.25L0 66.04v83.97h150V66.04zm-72.476 55.79L8.788 136.64V76.18zM75 96.3l57.79 44.92H17.209zm23 6.75l43.21-26.87v60.46zm39.77-35.09l-13.3 8.28V58.17zM115.68 8.8v72.91L90.61 97.3 75 85.17 59.392 97.3 34.32 81.71V8.8h81.36zM25.53 76.24l-13.306-8.28 13.306-9.79v18.07zm32.859-23.08l-4.286 4.28 6.215 6.21 4.286-4.28a19.734 19.734 0 0 0 6 2.49v6.06h8.79v-6.06a19.632 19.632 0 0 0 6-2.49l4.29 4.28 6.21-6.21-4.28-4.28a19.793 19.793 0 0 0 2.49-6.01h6.06v-8.78h-6.06a19.793 19.793 0 0 0-2.49-6.01l4.28-4.28-6.21-6.22-4.29 4.29a19.149 19.149 0 0 0-6-2.49V17.6h-8.79v6.06a19.245 19.245 0 0 0-6 2.49l-4.286-4.29-6.215 6.22 4.286 4.28a19.6 19.6 0 0 0-2.491 6.01h-6.055v8.78H55.9a19.6 19.6 0 0 0 2.489 6.01zM75 31.94a10.815 10.815 0 1 1-10.815 10.82A10.832 10.832 0 0 1 75 31.94z" fill-rule="evenodd"/>
</svg>
