<svg data-name="Capa 1" xmlns="http://www.w3.org/2000/svg" viewBox="0 0 326.5 512">
    <path d="M263.4 59.6H63L0 177.5V512h326.5V177.5z" fill="#f90"/>
    <path fill="#f70" d="M263.4 59.6H163.2V512h163.2V177.5l-63-117.9z"/>
    <path d="M163.2 187.6a31.9 31.9 0 1 1 31.9-31.9 31.92 31.92 0 0 1-31.9 31.9z" fill="#fff"/>
    <path fill="#0773a4" d="M148.2 0h30v136.9h-30z"/>
    <path d="M177.4 375.6v19.1h-24.2v-18.1c-17.1-1-33.8-5.7-44.1-12l13.1-29.5a82.66 82.66 0 0 0 39.6 10.9c11.5 0 15.6-2.4 15.6-6.5 0-15.1-66.4-2.9-66.4-47.7 0-19.4 14.1-35.7 42.2-39.6v-18.7h24.2v18.4c12.7 1.2 25 4.5 34.8 9.9L200 291.1c-11.9-6-23-8.9-33.5-8.9-11.9 0-15.6 3.4-15.6 7.5 0 14.4 66.4 2.4 66.4 46.6 0 18.6-13.3 34.7-39.9 39.3z" fill="#fff"/>
    <path d="M163.2 233.5v48.9c1-.1 2.1-.1 3.3-.1 10.4 0 21.6 2.9 33.5 8.9l12.2-29.3c-9.7-5.5-22.1-8.7-34.8-9.9v-18.4l-14.2-.1zm0 63.9V331c8.3 1.9 14.2 4 14.2 8.4 0 4-3.8 6.3-14.2 6.5v48.8h14.2v-19.1c26.6-4.7 39.9-20.8 39.9-39.2 0-32.1-34.9-34.6-54.1-39z" fill="#fff1ab"/>
    <path d="M93.9 418h138.7v30H93.9z" fill="#fff"/>
    <path d="M163.2 418h69.3v30h-69.3z" fill="#fff1ab"/>
</svg>
