<svg xmlns="http://www.w3.org/2000/svg" xmlns:xlink="http://www.w3.org/1999/xlink" viewBox="0 0 269.72 255.17">
    <defs>
        <linearGradient id="d6tv8a2gua" x1="158.09" y1="196.86" x2="384.5" y2="196.86" gradientTransform="rotate(20.68 316.417 80.115)" gradientUnits="userSpaceOnUse">
            <stop offset="0" stop-color="#f64f65"/>
            <stop offset="1" stop-color="#fe8e3a"/>
        </linearGradient>
        <linearGradient id="onvz8vpiub" x1="170.8" y1="194.58" x2="401.41" y2="194.58" xlink:href="#d6tv8a2gua"/>
    </defs>
    <path d="M356.7 90.35l-206.92 15.2a19.1 19.1 0 0 0-14.39 30.33l130 177.85a19.09 19.09 0 0 0 33.29-4.56l77-193.06a19.09 19.09 0 0 0-18.98-25.76z" transform="translate(-131.69 -66.99)" opacity=".4" fill="url(#d6tv8a2gua)"/>
    <path d="M389.8 146.17L197.38 68.55a19.09 19.09 0 0 0-26.28 20.87l38.19 216.94A19.09 19.09 0 0 0 241.18 317l154.23-139.37a19.09 19.09 0 0 0-5.61-31.46z" transform="translate(-131.69 -66.99)" fill="url(#onvz8vpiub)"/>
    <path d="M169.42 133.32a12.8 12.8 0 1 0 19-11.72V94.85l-6.34 6.34v22.46a3.16 3.16 0 0 0 2.16 3 6.46 6.46 0 1 1-8.52 6.39 3.17 3.17 0 1 0-6.33.28zm-48.69 8.85v6.34H99.49a12.68 12.68 0 0 0 0 25.36h63.61a12.68 12.68 0 0 0 0-25.36h-21.24v-6.34h8.56a3.17 3.17 0 0 0 3.17-3.17v-9.51h-44.38a3.17 3.17 0 0 1-3.17-3.17v-15.85H94.21a7.41 7.41 0 0 0-7.4 7.4v21.14a3.17 3.17 0 0 0 3.17 3.17zm42.37 25.36a6.34 6.34 0 1 1 6.33-6.34 6.35 6.35 0 0 1-6.33 6.34zm-63.61-12.68a6.34 6.34 0 1 1-6.34 6.34 6.34 6.34 0 0 1 6.34-6.34zm11 12.68a12.61 12.61 0 0 0 0-12.68h41.66a12.66 12.66 0 0 0 0 12.68zm81.73-85.41a9.51 9.51 0 1 0-13.45-13.45l-21.6 21.6a22 22 0 0 1 2.76 10.74v13.4zm-32.29 32.29" fill="#fff"/>
    <path fill="none" d="M86.81 65.78H195v108.19H86.81z"/>
    <path d="M112.38 123.15h41.21v-22.14a15.87 15.87 0 0 0-15.85-15.85h-25.36zm0-38" fill="#fff"/>
</svg>
