<svg xmlns="http://www.w3.org/2000/svg" data-name="Layer 1" viewBox="0 0 53.74 63.62"><defs><style>.cls-1{fill:none;stroke:#000;stroke-linecap:round;stroke-linejoin:round;stroke-width:3px;}</style></defs><g id="Phone"><path class="cls-1" d="M92.73,237c-5.35-5.13-11-13.2-12.73-20.87a3,3,0,0,1,1.4-3.23l5.8-3.52a3,3,0,0,0,1.42-3.11l-1.77-10.22a3,3,0,0,0-3-2.52l-9.93,0a3,3,0,0,0-3,2.57C66.46,224.27,83.35,247,106.19,254a3,3,0,0,0,3.47-1.31l4.92-8a3,3,0,0,0-.73-4L105.28,234a3,3,0,0,0-3.55-.13l-5.2,3.47A3,3,0,0,1,92.73,237Z" transform="translate(-68.7 -192.01)"></path><path class="cls-1" d="M97.79,206.73a38.45,38.45,0,0,1,13.8,21.92" transform="translate(-68.7 -192.01)"></path><path class="cls-1" d="M98.27,196.16a47.54,47.54,0,0,1,22.67,33.52" transform="translate(-68.7 -192.01)"></path></g></svg>