<svg xmlns="http://www.w3.org/2000/svg" data-name="Layer 1" viewBox="0 0 256.45 225.26"><path d="M296.14,575h14.51a18.14,18.14,0,0,0,18.14-18.14V438.11A18.14,18.14,0,0,0,310.65,420H296.14A18.15,18.15,0,0,0,278,438.11v118.7A18.15,18.15,0,0,0,296.14,575Zm0,0" transform="translate(-277.99 -350.09)"></path><path d="M362.89,575.35H481.62a32,32,0,0,0,22.53-10.29l6.21-7.16a43.3,43.3,0,0,0,9.11-19.66l14.71-95.1a24.41,24.41,0,0,0-12.92-25l-4-2a49.81,49.81,0,0,0-20-4.71H442.5l12.08-33.82a20.43,20.43,0,0,0-1.64-17.5,19.65,19.65,0,0,0-14.1-9.33,67.33,67.33,0,0,0-9.74-.72c-15.12,0-27.83,5.32-36.77,15.4a73.2,73.2,0,0,0-6.93,10c-.79,1.29-1.52,2.51-2.19,3.48-9.23,13.66-23,25.33-30.33,31.08-6.57,5.13-11.17,14.41-11.17,22.55V554.19a21.2,21.2,0,0,0,21.18,21.16Zm6.66-142.29a4.39,4.39,0,0,1,.64-1.17c8.7-6.81,24.77-20.58,36.07-37.29.87-1.27,1.86-2.88,2.89-4.58a60.15,60.15,0,0,1,4-6.06c2.79-3.15,6.7-5.09,11.66-5.76l-12.73,35.66A18.65,18.65,0,0,0,430,439.29h67.33a23.6,23.6,0,0,1,7.53,1.78l1.35.68L492,534a16.71,16.71,0,0,1-2.64,5.67l-6.06,7a5.82,5.82,0,0,1-1.88.85H369.55Zm0,0" transform="translate(-277.99 -350.09)"></path></svg>