<svg xmlns="http://www.w3.org/2000/svg" width="200" height="200" viewBox="0 0 200 200">
    <path d="M196.194 95.93h-88.306a1.266 1.266 0 0 1-1.432-1.43V3.8a3.51 3.51 0 0 0-3.819-3.81h-5.25a3.51 3.51 0 0 0-3.819 3.81v90.7a1.266 1.266 0 0 1-1.432 1.43H3.83a3.512 3.512 0 0 0-3.818 3.82V105a3.512 3.512 0 0 0 3.818 3.82h88.306a1.262 1.262 0 0 1 1.432 1.43v85.92a3.517 3.517 0 0 0 3.819 3.82h5.25a3.517 3.517 0 0 0 3.819-3.82v-85.92a1.262 1.262 0 0 1 1.432-1.43h88.306a3.512 3.512 0 0 0 3.818-3.82v-5.25a3.512 3.512 0 0 0-3.818-3.82z" fill-rule="evenodd"/>
</svg>
