<svg xmlns="http://www.w3.org/2000/svg" data-name="Layer 1" viewBox="0 0 261.21 261.21"><polygon points="77.04 105.79 58.8 124.11 117.53 182.83 248.13 52.22 229.83 33.92 117.53 146.29 77.04 105.79"></polygon><path d="M420.82,406.69c0,57.47-47,104.45-104.45,104.45s-104.45-47-104.45-104.45,47-104.45,104.45-104.45a101.94,101.94,0,0,1,28.76,3.89L366,285.21c-15.69-5.24-32.65-9.12-49.61-9.12-71.8,0-130.61,58.8-130.61,130.6s58.81,130.6,130.61,130.6S447,478.49,447,406.69Z" transform="translate(-185.76 -276.09)"></path><path d="M420.82,406.69" transform="translate(-185.76 -276.09)"></path></svg>