<svg data-name="Capa 1" xmlns="http://www.w3.org/2000/svg" viewBox="0 0 486.4 512">
    <path d="M238.61 503.47C506.73 388.56 472.26 143 462.4 94a8.49 8.49 0 0 0-10.41-6.51c-124.91 29.14-186.51-39.26-206-67.49a8.53 8.53 0 0 0-14.14 0c-19.56 28.2-81.36 96.62-206.3 67.41A8.49 8.49 0 0 0 15.14 94c-9.86 49-44.33 294.61 223.79 409.52z" fill="#46b29d"/>
    <path d="M238.77 466C39.6 373.13 36.48 198.14 44.73 125.78a274 274 0 0 0 39.12 2.89 210.48 210.48 0 0 0 155-63.82 209.93 209.93 0 0 0 154.81 63.81 273.71 273.71 0 0 0 39.1-2.9c8.3 72.39 5.18 247.37-193.99 340.24z" fill="#ff5364"/>
    <path d="M238.76 474.55a8.43 8.43 0 0 1-3.59-.8 431.33 431.33 0 0 1-56.51-31.44 8.531 8.531 0 1 1 9.43-14.22 414.23 414.23 0 0 0 50.67 28.49c184.86-88.1 193.71-247.79 186.74-321.25a279.49 279.49 0 0 1-31.81 1.88 8.54 8.54 0 1 1 0-17.07 266 266 0 0 0 38.13-2.84 8.53 8.53 0 0 1 9.69 7.42c8.8 73 7 253-199.14 349a8.5 8.5 0 0 1-3.61.83zm-116.12-82.02a8.45 8.45 0 0 1-6.26-2.73 305.14 305.14 0 0 1-75.31-148.58A375.37 375.37 0 0 1 36.2 124.8a8.52 8.52 0 0 1 9.69-7.48 264.9 264.9 0 0 0 38 2.82 201.21 201.21 0 0 0 148.79-61 8.78 8.78 0 0 1 12.27 0 195.68 195.68 0 0 0 81.92 51 8.53 8.53 0 1 1-5.19 16.25 212.08 212.08 0 0 1-82.88-49.27 218.2 218.2 0 0 1-154.93 60.09 279.92 279.92 0 0 1-31.58-1.85A357.51 357.51 0 0 0 57.8 237.8a288.47 288.47 0 0 0 71.1 140.4 8.52 8.52 0 0 1-6.26 14.33z" fill="#65ddb9"/>
    <path d="M179.2 324.27a8.54 8.54 0 0 1-6-14.57l119.43-119.47a8.54 8.54 0 0 1 12.07 12.07L185.2 321.77a8.53 8.53 0 0 1-6 2.5z" fill="#fff"/>
    <path d="M298.67 324.27a8.54 8.54 0 0 1-6-2.5L173.2 202.3a8.53 8.53 0 0 1 12-12.07L304.7 309.7a8.54 8.54 0 0 1-6 14.57z" fill="#fff"/>
    <path d="M238.93 358.4h-68.26a8.54 8.54 0 1 1 0-17.07h68.26a8.54 8.54 0 1 1 0 17.07zm68.27 0h-34.13a8.54 8.54 0 1 1 0-17.07h34.13a8.54 8.54 0 0 1 0 17.07z" fill="#f0c419"/>
    <path d="M34.13 469.33a8.53 8.53 0 0 1-8.53-8.53v-51.2a8.54 8.54 0 0 1 17.07 0v51.2a8.53 8.53 0 0 1-8.54 8.53z" fill="#46b29d"/>
    <path d="M59.73 443.73H8.53a8.53 8.53 0 0 1 0-17.06h51.2a8.53 8.53 0 1 1 0 17.06z" fill="#46b29d"/>
    <path d="M452.27 512a8.53 8.53 0 0 1-8.54-8.53v-51.2a8.54 8.54 0 1 1 17.07 0v51.2a8.53 8.53 0 0 1-8.53 8.53z" fill="#f0c419"/>
    <path d="M477.87 486.4h-51.2a8.54 8.54 0 1 1 0-17.07h51.2a8.54 8.54 0 0 1 0 17.07z" fill="#f0c419"/>
    <path d="M426.67 51.2a8.53 8.53 0 0 1-8.54-8.53V8.53a8.54 8.54 0 0 1 17.07 0v34.14a8.53 8.53 0 0 1-8.53 8.53z" fill="#ff5364"/>
    <path d="M443.73 34.13H409.6a8.53 8.53 0 1 1 0-17.06h34.13a8.53 8.53 0 1 1 0 17.06z" fill="#ff5364"/>
</svg>
