<svg xmlns="http://www.w3.org/2000/svg" width="235" height="300" viewBox="0 0 235 300">
    <path d="M92.247 4.849a115.289 115.289 0 0 1 93.633 12.39c21.969 13.035 39.263 34.042 49.12 58.216-15.09-.019-30.18.068-45.262-.047-9.065-13.282-21.779-24.036-36.594-29.53a78.528 78.528 0 0 0-47.949-2.112c-18.878 5.456-35.157 19.01-45.642 36.091-9.615 15.55-13.231 34.7-11.018 52.965a5.341 5.341 0 0 1-.663 4.014c-7.928 16.217-15.633 32.578-23.63 48.764a129.4 129.4 0 0 1 7.67-137.151 115.745 115.745 0 0 1 60.336-43.6zM0 299.959c40.253-83.033 80.092-170.932 120.414-253.928q27.62 57.835 55.429 115.583-20.763-.009-41.51-.006c-4.656-9.737-9.288-19.484-13.98-29.211q-15.237 31.51-30.388 63.065c14.144 7.631 30.466 10.241 46.245 8.526a72.116 72.116 0 0 0 37.438-15.985c.861-.645 1.713-1.5 2.866-1.39 17.045-.068 34.1.144 51.134-.1a120.609 120.609 0 0 1-50.488 47.318 114.9 114.9 0 0 1-104.79-1.793c-9.581 19.881-19.481 39.592-29.105 59.445-.663 1.255-1.538 7.193-2.14 8.479-13.808.028-27.326.013-41.125 0zm153.216-43.062c13.569-.044 27.138.069 40.707-.06 6.429 12.707 11.286 30.347 17.577 43.122-11.9.053-23.355-.178-35.25 0-1.794-.091-4.09-.037-5.875 0-.112-.141.856-5.078.744-5.222-5.888-12.662-12.007-25.187-17.9-37.84z" fill-rule="evenodd"/>
</svg>
