<svg xmlns="http://www.w3.org/2000/svg" width="150" height="150" viewBox="0 0 150 150">
    <path d="M68.23 118.43a56.676 56.676 0 0 1-36.65-36.65l11.68-3.22V43.07H0V64.7a85.287 85.287 0 0 0 85.31 85.31h21.62v-43.26H71.44zm9.91-2.89h20v25.68H85.31A76.513 76.513 0 0 1 8.79 64.7V51.87h25.68v20L20.92 75.6l.98 4.13a65.329 65.329 0 0 0 48.38 48.38l4.13.98zm49.89-93.56a74.985 74.985 0 0 0-106.06 0l6.21 6.21a66.213 66.213 0 0 1 93.64 93.64l6.21 6.21a74.985 74.985 0 0 0 0-106.06zM85.66 66.54V40.15H59.28v8.79h17.59v8.81H59.28v26.38h26.39v-8.79h-17.6v-8.8h17.59zm26.4-8.79h-8.8v-17.6h-8.79v26.39h17.59v17.6h8.79V40.15h-8.79v17.6z" fill-rule="evenodd"/>
</svg>
