<svg data-name="Слой 1" xmlns="http://www.w3.org/2000/svg" viewBox="0 0 2686.03 2153.74">
    <path d="M2395.93 757.74h-18.69v-405.3h-766.61V1433.2h959.6V932.03a174.31 174.31 0 0 0-174.3-174.29z" fill="#f79420"/>
    <path fill="#293b8f" d="M1692.43 487.47h597.96v250.95h-597.96z"/>
    <path d="M1873.41 429.57h98.55v328.15h-98.55z" fill="#f79420"/>
    <path d="M388.62 1057.03h2297.41v424.41H388.62z" fill="#fdba1a"/>
    <path d="M386.21 582.86h1224.42v474.18H386.21z" fill="#808184"/>
    <path d="M1468.64 1692.37v-127.85h75.54q3.11-22.08 8.28-43.42l-70.1-28 47.39-118.75 70.07 28a454.74 454.74 0 0 1 31-46.63l-53.5-53.5 90.41-90.41 53.58 53.59a453.63 453.63 0 0 1 49.74-32.76l-27.44-70.38 119.12-46.44 27.55 70.66c13-3 26.31-5.4 39.76-7.28v-76h127.85v76.23c13.42 1.91 26.64 4.31 39.65 7.37l27.66-70.94 119.13 46.44-27.67 71a455.54 455.54 0 0 1 49.45 32.68l54.09-54.1 90.41 90.41-54.18 54.18a455.48 455.48 0 0 1 30.69 46.34l71-28.35 47.38 118.67-71.17 28.41q5.1 21.12 8.16 43h76.73v127.85h-76.72q-3.09 21.85-8.16 43l71.16 28.35-47.39 118.75-71-28.34a454.78 454.78 0 0 1-30.69 46.33l54.18 54.18-90.41 90.41-54.09-54.09a454 454 0 0 1-49.45 32.67l27.67 71-119.13 46.44-27.69-70.94c-13 3.05-26.23 5.45-39.65 7.37v76.22h-127.84v-76c-13.45-1.88-26.72-4.24-39.76-7.28l-27.55 70.66-119.12-46.44 27.44-70.38a453.63 453.63 0 0 1-49.74-32.76l-53.58 53.59-90.41-90.41 53.5-53.5a453.65 453.65 0 0 1-31-46.63l-70.07 28-47.36-118.85 70.1-28q-5.19-21.35-8.28-43.42z" fill="#30302f"/>
    <path d="M1713.84 1628.45c0 154.69 125.4 280.09 280.1 280.09s280.09-125.4 280.09-280.09-125.4-280.1-280.09-280.1-280.1 125.39-280.1 280.1z" fill="#808184"/>
    <path d="M1844.11 1628.45a149.83 149.83 0 1 0 149.83-149.83 149.83 149.83 0 0 0-149.83 149.83z" fill="#fdba1a"/>
    <path d="M194.89 1692.37v-127.85h75.54q3.12-22.08 8.28-43.42l-70.1-28L256 1374.35l70.07 28a454.74 454.74 0 0 1 31-46.63l-53.5-53.5 90.41-90.41 53.59 53.59a452.55 452.55 0 0 1 49.73-32.76l-27.44-70.38 119.12-46.44 27.55 70.66c13-3 26.31-5.4 39.76-7.28v-76h127.85v76.23c13.42 1.91 26.65 4.31 39.65 7.37l27.66-70.94 119.13 46.44-27.67 71a454.57 454.57 0 0 1 49.45 32.68l54.09-54.1 90.41 90.41-54.18 54.18a455.48 455.48 0 0 1 30.69 46.34l71-28.35 47.38 118.75-71.18 28.41q5.11 21.12 8.17 43h76.76v127.85h-76.73q-3.08 21.85-8.17 43l71.18 28.4-47.38 118.75-71-28.34a454.78 454.78 0 0 1-30.69 46.33l54.18 54.18-90.41 90.41-54.09-54.09a453 453 0 0 1-49.45 32.67l27.67 71-119.13 46.44-27.66-70.93c-13 3.05-26.23 5.45-39.65 7.37v76.08H656.26v-76c-13.45-1.88-26.72-4.24-39.76-7.28l-27.55 70.66-119.12-46.44 27.44-70.38a452.55 452.55 0 0 1-49.73-32.76l-53.59 53.59-90.45-90.45 53.5-53.5a453.65 453.65 0 0 1-31-46.63l-70.07 28-47.32-118.81 70.1-28q-5.19-21.35-8.28-43.42z" fill="#30302f"/>
    <circle cx="2407.69" cy="2143.71" r="280.1" transform="rotate(-45 941.967 3923.065)" fill="#808184"/>
    <circle cx="2407.69" cy="2143.71" r="149.83" transform="rotate(-7.47 -2384.032 14809.942)" fill="#fdba1a"/>
    <path d="M2367.59 34h-871.22c-92.67 0-168.17 72.63-173.21 164H110.74c-118.21 0-154 160.54-46.94 210.73l1052 589.94c104 58.3 234.85 1.34 263.05-114.47l164.65-676.46h824.1z" fill="#fdba1a"/>
    <path d="M2155.3 819.95h135.09v41.51H2155.3z" fill="#808184"/>
    <path d="M194.89 330.73h1178.79l-128.2 550.03L194.89 330.73z" fill="#f79420"/>
    <path d="M518.24 104.39c-176.19-58.35-290.45 93.65-290.45 93.65h1075.59c-314.6-302.43-620.77-194.3-785.14-93.65z" fill="#8a5f3c"/>
</svg>
