<svg width="221" height="56" viewBox="0 0 221 56" fill="inherit" xmlns="http://www.w3.org/2000/svg">
    <path d="M8.246 22.905v-1.821l2.476-2.621h4.667l1.426-1.398h1.617v-.82h6.53v-2.721h24.996l2.625 2.626v.972a7.895 7.895 0 0 1 0 13.07v.968l-2.625 2.625h-1.19v5.828a1.59 1.59 0 0 1-1.128 1.515v6.396a2.6 2.6 0 0 0 2.589 2.604h.655v4.874H31.07v-4.874h.656a4.646 4.646 0 0 0 4.64-4.642v-4.657l-7.09-7.039h-4.318v-2.91h-6.53v-.623h-1.617l-1.417-1.406h-4.666L8.25 26.232v-2.019H1v-1.308h7.245zm46.491.762a6.575 6.575 0 0 0-2.154-4.869v9.737a6.575 6.575 0 0 0 2.154-4.878v.01zm-5.322 8.824l1.857-1.859V16.684l-1.857-1.857h-.647v17.647l.647.017zM32.381 51.41v2.285h17.2v-2.314a3.914 3.914 0 0 1-3.251-3.851v-6.32h-8.654v4.275a5.96 5.96 0 0 1-5.295 5.914v.01zm4.91-11.5h9.89a.282.282 0 0 0 .282-.281V33.8h-16.32l6.148 6.11zm-11.019-7.419h2.623V18.97h5.806v1.31h-4.497v12.211h17.253V14.834H30.204v1.429h-1.309v-1.429h-2.623v17.657zm-6.53-2.91h5.22V17.547h-5.22V29.58zm-3.418-1.66l1.03 1.026h1.078V18.366h-1.078l-1.03 1.024v8.532zm-6.768-2.214l1.737 1.834h3.72v-7.768h-3.72l-1.737 1.833v4.1z"/>
    <path d="M13.964 20.528h-1.85v1.309h1.85zm0 2.375h-1.85v1.309h1.85zm0 2.377h-1.85v1.309h1.85zm32.132-9.042h-5.663v1.309h5.663zm0 4.509h-5.663v1.309h5.663zm0 4.51h-5.663v1.309h5.663zm0 4.511h-5.663v1.309h5.663zm-1.418 12.966h-5.35v1.309h5.35zm-20.343-4.603h1.31v6.892l1.536 1.756v3.941H22.8v-3.941l1.533-1.764.002-6.884zm-.223 11.288h1.758v-2.143l-.88-1.011-.878 1.011v2.143zm-6.794-11.288h1.31v6.892l1.524 1.764v3.94h-4.38V46.78l1.533-1.764.013-6.884zm-.232 11.288h1.756v-2.143l-.878-1.011-.878 1.011v2.143zM12.49 38.96h-.94v3.413h-1.31V38.96h-.943v-1.31h3.193zm-5.9 0h-.94v3.413H4.34V38.96h-.943v-1.31H6.59zm5.9 7.524h-.94v3.415h-1.31v-3.415h-.943v-1.309h3.193zm-5.9 0h-.94v3.415H4.34v-3.415h-.943v-1.309H6.59zM140.592 43.85h-.203V28.876l-9.349-9.524h-4.829v-2.857l-2.398-2.398h-9.217l-3.76 7.84H82.82a1.246 1.246 0 0 0-1.244 1.244v2.463c.007.402.21.776.545 1v12.724l4.61 4.62-.572.572v4.665l.703.7h4.478a5.747 5.747 0 0 0 11.415 0h20.762a5.745 5.745 0 0 0 11.414 0h5.67l.703-.7V44.56l-.71-.71zm-1.607-14.4v14.4h-7.68a5.583 5.583 0 0 0-4.18 0h-7.68V20.762h11.006l8.534 8.688zm-37.762 15.809h23.81a5.741 5.741 0 0 0-1.524 3.261h-20.762a5.73 5.73 0 0 0-1.524-3.267v.006zM82.977 25.488v-2.149h28.743l3.76-7.84h7.75l1.576 1.577v2.286h-6.766V43.85H99.135a5.589 5.589 0 0 0-4.19 0h-6.358l-5.065-5.067V26.886h32.699v-1.404l-33.244.006zm4.585 19.771h5.305a5.741 5.741 0 0 0-1.524 3.261h-3.781v-3.261zm9.484 8.341a4.381 4.381 0 1 1 4.371-4.381 4.381 4.381 0 0 1-4.371 4.375v.006zm32.17 0a4.381 4.381 0 1 1 4.37-4.381 4.381 4.381 0 0 1-4.37 4.375v.006zm10.666-5.08h-4.96a5.754 5.754 0 0 0-1.524-3.261h6.495l-.011 3.261z"/>
    <path d="M113.022 29.512h1.406v8.162h-1.406zm-7.904 0h1.406v8.162h-1.406zm-7.905 0h1.406v8.162h-1.406zm-7.905 0h1.406v8.162h-1.406zm45.684-1.767l-4.32-4.328-9.247.046v9.133h13.567v-4.851zm-1.405 3.455h-10.758v-6.331l7.264-.037 3.494 3.494V31.2zm-12.165 3.731h4.25v1.404h-4.25z"/>
    <g>
        <path d="M197.95 43.579h-25.394a5.653 5.653 0 0 0 0 11.305h25.394a5.653 5.653 0 1 0 0-11.305zm0 10.02h-25.394a4.368 4.368 0 0 1 0-8.734h25.394a4.368 4.368 0 1 1 0 8.733z"/>
        <path d="M173.103 46.143a3.09 3.09 0 1 0-.004 6.179 3.09 3.09 0 0 0 .004-6.18zm0 4.891a1.804 1.804 0 1 1-.008-3.607 1.804 1.804 0 0 1 .008 3.607zm8.103-4.891a3.09 3.09 0 1 0-.004 6.179 3.09 3.09 0 0 0 .004-6.18zm0 4.891a1.804 1.804 0 1 1 0-3.607 1.804 1.804 0 0 1 0 3.607zm8.103-4.891a3.09 3.09 0 1 0 0 6.179 3.09 3.09 0 0 0 0-6.18zm0 4.891a1.804 1.804 0 1 1 0-3.607 1.804 1.804 0 0 1 0 3.607zm8.104-4.891a3.09 3.09 0 1 0-.003 6.179 3.09 3.09 0 0 0 .003-6.18zm0 4.891a1.804 1.804 0 1 1-.003-3.607 1.804 1.804 0 0 1 .003 3.607zm2.598-21.914l-5.055-4.223h-6.813v9.457h11.868V29.12zm-1.285 3.949h-9.297v-6.88h5.06l4.237 3.539v3.34zm-26.936-5.187h6.685v1.286h-6.684zm0 4.059h6.685v1.286h-6.684zm0 4.059h6.685v1.286h-6.684zm29.505-30.166a1.307 1.307 0 1 0-1.845-1.85 1.307 1.307 0 0 0 1.845 1.85z"/>
        <path d="M220.385 30.518a2.89 2.89 0 0 0-2.395-4.51c-.034 0-.068.01-.102.011L205.09 4.952V4.91a4.716 4.716 0 0 0-9.071-1.824l-18.804 18.796h-6.68l-2.785 2.783v14.731l1.416 1.5h-1.62v1.293h35.43v-1.286h-1.616l1.413-1.495V27.827l-7.114-5.943h-6.66l11.988-11.987L215.3 27.872a2.77 2.77 0 0 0 .114 2.307h-5.047l-1.524-1.524h-2.975l-.159.414a7.339 7.339 0 0 0-.466 2.628 7.619 7.619 0 1 0 15.238 0 7.512 7.512 0 0 0-.055-.937c-.012-.088-.029-.164-.042-.242zm-.789-1.619a1.606 1.606 0 1 1-3.211 0 1.606 1.606 0 0 1 3.211 0zm-2.994-2.52a2.97 2.97 0 0 0-.545.381L202.141 9.286a4.68 4.68 0 0 0 2.56-2.5l11.9 19.593zM197.95 2.48a3.43 3.43 0 0 1 4.852 4.851 3.518 3.518 0 0 1-4.838.018l-.038-.039a3.438 3.438 0 0 1 .024-4.83zm-28.916 36.408V25.2l2.033-2.032h6.15l4.581 4.622v13.107h-10.857l-1.907-2.01zm14.06 2.01V24.473a1.299 1.299 0 0 1 1.296-1.297h.989v17.728l-2.286-.008zm18.396-12.47v10.463l-1.905 2.006h-12.913V23.17h8.513l6.305 5.259zm-17.109-6.544a2.585 2.585 0 0 0-2.583 2.59v1.497l-3.406-3.428 17.294-17.307c.062.91.39 1.783.943 2.509l-9.82 9.813a.642.642 0 0 0 .91.909l9.818-9.802c.58.447 1.258.75 1.977.885l-12.337 12.334h-2.796zm28.482 16.146a6.343 6.343 0 0 1-6.341-6.34 6.237 6.237 0 0 1 .244-1.759h1.537l1.524 1.524h6.857a2.792 2.792 0 0 0 2.503.061v.166a6.345 6.345 0 0 1-6.324 6.348z"/>
    </g>
</svg>
