<svg xmlns="http://www.w3.org/2000/svg" height="512pt" viewBox="0 -54 512 511" width="512pt">
    <path d="M431.984 191.246v46.824h75.145l-23.27-60.25h-38.39c-7.438 0-13.485 6.024-13.485 13.426zm0 0M319.996 28.89h-15V15.505C304.996 7.219 298.277.5 289.992.5c-8.289 0-15.004 6.719-15.004 15.004V28.89H244.98V15.504C244.98 7.219 238.262.5 229.977.5c-8.286 0-15.004 6.719-15.004 15.004V28.89h-30.004V15.504C184.969 7.219 178.25.5 169.965.5c-8.29 0-15.004 6.719-15.004 15.004V28.89h-36.578a15.002 15.002 0 0 0-11.473 5.336L3.527 156.945A15.005 15.005 0 0 0 0 166.61v71.461h335V43.895c0-8.29-6.719-15.004-15.004-15.004zm0 0"/>
    <path d="M416.98 268.078c-8.285 0-15.003-6.719-15.003-15.004v-61.828c0-23.95 19.511-43.434 43.492-43.434h26.773c-6.71-16.632-18.055-30.765-32.89-40.925-15.215-10.422-33.012-15.93-51.461-15.93h-22.883v261.07c7.597-26.379 31.957-45.734 60.773-45.734 29.043 0 53.559 19.664 60.95 46.363h10.265c8.285 0 15.004-6.719 15.004-15.004v-69.574zm0 0M0 337.652c0 8.286 6.719 15.004 15.004 15.004h34.062c7.391-26.695 31.91-46.363 60.954-46.363s53.558 19.664 60.949 46.363H335v-84.578H0zm0 0"/>
    <path d="M459.012 369.469c0-18.32-14.88-33.168-33.235-33.168-18.351 0-33.234 14.847-33.234 33.168 0 18.316 14.883 33.164 33.234 33.164 18.356 0 33.235-14.848 33.235-33.164zm0 0M143.254 369.469c0-18.32-14.879-33.168-33.234-33.168s-33.235 14.847-33.235 33.168c0 18.316 14.88 33.164 33.235 33.164s33.234-14.848 33.234-33.164zm0 0"/>
</svg>
