<svg xmlns="http://www.w3.org/2000/svg" xmlns:xlink="http://www.w3.org/1999/xlink" x="0px" y="0px" viewBox="0 0 612 792" xml:space="preserve">
<g>
	<polygon points="195.2,360.4 159.5,396.3 274.6,511.4 530.6,255.4 494.7,219.6 274.6,439.8  "></polygon>
	<path d="M505,409.1c0,112.6-92.1,204.7-204.7,204.7c-112.6,0-204.7-92.1-204.7-204.7c0-112.6,92.1-204.7,204.7-204.7   c20.5,0,38.4,2.5,56.4,7.6l40.9-41c-30.8-10.3-64-17.9-97.2-17.9c-140.7,0-256,115.3-256,256c0,140.7,115.3,256,256,256   c140.7,0,256-115.3,256-256H505z"></path>
	<path d="M505,409.1"></path>
</g>
</svg>