<svg xmlns="http://www.w3.org/2000/svg" width="135" height="150" viewBox="0 0 135 150">
    <path d="M66.308 35.18a48.625 48.625 0 1 0 48.7 48.63 48.724 48.724 0 0 0-48.7-48.63zm0 88.46a39.835 39.835 0 1 1 39.9-39.83 39.911 39.911 0 0 1-39.9 39.83zM135 33.88l-18.685-18.66-13.387 13.37a65.833 65.833 0 0 0-19-8.64V8.8h8.814V.01H39.877V8.8h8.814v11.15a66.267 66.267 0 1 0 72.922 27.3zm-18.685-6.22l6.235 6.22-6.34 6.33q-1.449-1.65-3.013-3.21t-3.222-3.01zM57.495 8.8h17.628v9.39a67.261 67.261 0 0 0-17.628 0V8.8zm8.814 132.42a57.41 57.41 0 1 1 57.506-57.41 57.52 57.52 0 0 1-57.507 57.41zm4.4-88.45h-8.8V88.2h26.677v-8.79H70.71V52.77z" fill-rule="evenodd"/>
</svg>
