<svg xmlns="http://www.w3.org/2000/svg" data-name="Layer 1" viewBox="0 0 64 62.97"><defs><style>.cls-1{fill:none;stroke:#000;stroke-miterlimit:10;stroke-width:3px;}</style></defs><g id="Mail_opened" data-name="Mail opened"><path class="cls-1" d="M253.75,88.5s-21.56,15.74-28,20.44a3,3,0,0,1-3.56,0c-6.41-4.7-28-20.44-28-20.44" transform="translate(-192 -65.03)"></path><path class="cls-1" d="M193.5,117.41V90.56a3,3,0,0,1,1.17-2.38c4.67-3.57,21.92-16.74,27.52-21a3,3,0,0,1,3.62,0c5.6,4.3,22.85,17.47,27.52,21a3,3,0,0,1,1.17,2.38V123.5a3,3,0,0,1-3,3h-55a3,3,0,0,1-3-3Z" transform="translate(-192 -65.03)"></path></g></svg>