<svg xmlns="http://www.w3.org/2000/svg" data-name="icons [expand]" viewBox="0 0 289.02 217.76">
    <path d="M250.96 49.25v-9.56l-13-13.76h-24.5l-7.49-7.34h-8.49v-4.3H163.2V0H31.97L18.19 13.79v5.1a41.45 41.45 0 0 0 0 68.62v5.08l13.78 13.78h6.25v30.6a8.35 8.35 0 0 0 5.92 7.95v33.58a13.65 13.65 0 0 1-13.59 13.67h-3.44v25.59h104.02v-25.59h-3.44a24.39 24.39 0 0 1-24.36-24.37v-24.45l37.22-36.95h22.67V91.12h34.28v-3.27h8.49l7.44-7.38h24.5l13-13.75v-10.6h38.06v-6.87zm-244.08 4a34.52 34.52 0 0 1 11.31-25.56v51.12A34.52 34.52 0 0 1 6.88 53.2zm27.94 46.33l-9.75-9.76V16.59l9.75-9.75h3.4v92.65zm89.43 99.32v12h-90.3v-12.15a20.55 20.55 0 0 0 17.07-20.22v-33.17h45.43v22.44a31.29 31.29 0 0 0 27.8 31.05zm-25.78-60.37H46.55a1.48 1.48 0 0 1-1.48-1.48v-30.6h85.68zm57.85-38.95h-13.77V28.59h-30.48v6.88h23.61v64.11H45.1V6.88h90.58v7.5h6.87v-7.5h13.77zM190.6 84.3h-27.4V21.12h27.4zm17.95-8.71l-5.41 5.38h-5.66V25.42h5.66l5.41 5.38v44.79zm35.53-11.63l-9.12 9.63h-19.53V32.81h19.53l9.12 9.62z"/>
    <path d="M220.94 36.77h9.71v6.87h-9.71zM220.94 49.24h9.71v6.87h-9.71zM220.94 61.72h9.71v6.87h-9.71zM52.25 14.25h29.73v6.87H52.25zM52.25 37.92h29.73v6.87H52.25zM52.25 61.6h29.73v6.87H52.25zM52.25 85.28h29.73v6.87H52.25zM59.69 153.35h28.08v6.87H59.69zM166.49 129.19h-6.88v36.18l-8.06 9.22v20.69h23v-20.69l-8.05-9.26zm1.17 59.26h-9.23V177.2l4.62-5.31 4.61 5.31zM203.33 129.19h-6.88v36.18l-8 9.26v20.69h23v-20.73l-8.05-9.26zm1.22 59.26h-9.22V177.2l4.61-5.31 4.61 5.31zM228.68 133.54h4.93v17.92h6.88v-17.92h4.95v-6.88h-16.76v6.88zM259.65 133.54h4.94v17.92h6.87v-17.92h4.95v-6.88h-16.76v6.88zM228.68 173.04h4.93v17.93h6.88v-17.93h4.95v-6.87h-16.76v6.87zM259.65 173.04h4.94v17.93h6.87v-17.93h4.95v-6.87h-16.76v6.87z"/>
</svg>
