<svg xmlns="http://www.w3.org/2000/svg" xmlns:xlink="http://www.w3.org/1999/xlink" viewBox="0 0 272.17 256.82">
    <defs>
        <linearGradient id="xburcuykva" x1="187.1" y1="216.95" x2="414.97" y2="216.95" gradientTransform="rotate(19.54 440.986 81.512)" gradientUnits="userSpaceOnUse">
            <stop offset="0" stop-color="#fe8e3a"/>
            <stop offset="1" stop-color="#f7dd5c"/>
        </linearGradient>
        <linearGradient id="l3e3b3klcb" x1="203.22" y1="217.06" x2="453.15" y2="-12.61" xlink:href="#xburcuykva"/>
    </defs>
    <path d="M386.62 76.33L178.7 95.73a19.22 19.22 0 0 0-13.87 30.8l134.31 176.39a19.21 19.21 0 0 0 33.4-5.25l73.62-195.8a19.21 19.21 0 0 0-19.54-25.54z" transform="translate(-160.88 -54.19)" opacity=".4" fill="url(#xburcuykva)"/>
    <path d="M421.36 133.88L227.7 55.76a19.21 19.21 0 0 0-26.45 21l38.43 218.35a19.22 19.22 0 0 0 32.1 10.65L427 165.54a19.22 19.22 0 0 0-5.64-31.66z" transform="translate(-160.88 -54.19)" fill="url(#l3e3b3klcb)"/>
    <path d="M92.95 163.57h6.48a8.09 8.09 0 0 0 8.09-8.09v-53a8.1 8.1 0 0 0-8.09-8.1h-6.48a8.1 8.1 0 0 0-8.1 8.1v53a8.1 8.1 0 0 0 8.1 8.1zm29.79.18h53a14.22 14.22 0 0 0 10-4.6l2.78-3.19a19.37 19.37 0 0 0 4.06-8.77l6.56-42.44a10.9 10.9 0 0 0-5.76-11.16l-1.77-.87a22.1 22.1 0 0 0-8.9-2.11h-24.45l5.39-15.09a9.11 9.11 0 0 0-.73-7.81 8.76 8.76 0 0 0-6.29-4.16 30.64 30.64 0 0 0-4.35-.32c-6.74 0-12.41 2.37-16.41 6.87a34.11 34.11 0 0 0-3.09 4.47c-.35.58-.68 1.13-1 1.56-4.11 6.09-10.24 11.3-13.53 13.87a13.65 13.65 0 0 0-5 10.06v54.24a9.46 9.46 0 0 0 9.45 9.45zm3-63.5a2 2 0 0 1 .28-.52c3.89-3 11.06-9.19 16.1-16.64.39-.57.83-1.29 1.29-2a25.47 25.47 0 0 1 1.79-2.71 8.12 8.12 0 0 1 5.2-2.57l-5.68 15.91a8.32 8.32 0 0 0 8 11.35h30.05a10.58 10.58 0 0 1 3.36.8l.6.3-6.37 41.16a7.39 7.39 0 0 1-1.24 2.48l-2.71 3.12a2.37 2.37 0 0 1-.84.38h-49.9zm0 0" fill="#fff"/>
</svg>
