<svg xmlns="http://www.w3.org/2000/svg" data-name="Слой 1" viewBox="0 0 2641.18 1438.56">
    <path fill="#0e2029" d="M1229.8 49.91l-222.57 794.06 106.75-88.4h755.57V49.91H1229.8z"/>
    <path fill="#30bec7" d="M1289.61 101.27h504.87v466.18l-711.74 242.87 206.87-709.05z"/>
    <path fill="#15a1a1" d="M1794.48 101.27l-696.51 647.76 705.64-125.97-9.13-521.79z"/>
    <path d="M2530.07 1217.8H1268.24V363.96H2446.3c55.51 0 102.48 42.14 110 98.7l83.77 625.23c9.23 68.68-42.62 129.91-110 129.91z" fill="#fbae17"/>
    <path d="M2445.23 1117.74c0 177.2-143.6 320.83-320.81 320.83s-320.81-143.63-320.81-320.83 143.63-320.81 320.81-320.81 320.81 143.64 320.81 320.81z" fill="#0e2029"/>
    <path d="M2398.18 1117.74c0 151.21-122.53 273.77-273.75 273.77s-273.74-122.56-273.74-273.77 122.55-273.76 273.74-273.76 273.75 122.59 273.75 273.76z" fill="#203b53"/>
    <path d="M2294.12 1117.74a169.71 169.71 0 1 1-169.7-169.67 169.72 169.72 0 0 1 169.7 169.67z" fill="#fbae17"/>
    <path d="M1495.33 1117.74c0 177.2-143.6 320.83-320.78 320.83s-320.84-143.63-320.84-320.83 143.66-320.81 320.84-320.81 320.78 143.64 320.78 320.81z" fill="#0e2029"/>
    <path d="M1448.29 1117.74c0 151.21-122.56 273.77-273.74 273.77s-273.77-122.56-273.77-273.77 122.58-273.76 273.77-273.76 273.74 122.59 273.74 273.76z" fill="#203b53"/>
    <path d="M1344.24 1117.74c0 93.71-76 169.72-169.69 169.72a169.71 169.71 0 1 1 169.69-169.72z" fill="#fbae17"/>
    <path fill="#0e2029" d="M1491.74 76.32h75.06v517.14h-75.06z"/>
    <path fill="#203b53" d="M1167.81 0h752.94v49.91h-752.94z"/>
    <path d="M536.95 920.13l-242.83 421.18H50.18c-27.7 0-50.19 20.26-50.19 45.34s22.49 45.33 50.19 45.33h534.15c142.84 0 376.58-149.79 131.57-511.85z" fill="#fbae17"/>
    <path d="M1238.12 1117.74a63.59 63.59 0 1 1-63.57-63.56 63.59 63.59 0 0 1 63.57 63.56zM2188 1117.74a63.56 63.56 0 1 1-63.58-63.57 63.58 63.58 0 0 1 63.58 63.57z" fill="#0e2029"/>
    <path d="M2257.06 402.23l-648 27.45-899.94 562.39a110 110 0 0 0 116.47 186.63L1695 715.26l543.18 76.03c121 16.9 227.68-79.93 222.5-201.95-4.57-107.9-95.75-191.7-203.63-187.11z" fill="#f26e21"/>
    <path d="M2347.18 588.9a55.06 55.06 0 1 1-57.31-52.67 55.09 55.09 0 0 1 57.31 52.67zM822.73 1085.01a55.05 55.05 0 1 1-55.05-55.06 55.08 55.08 0 0 1 55.05 55.06z" fill="#fbae17"/>
    <path fill="#f26e21" d="M1529.27 920.13h238.99v48.43h-238.99zM1529.27 1029.94h238.99v48.42h-238.99z"/>
</svg>
