<svg data-name="Layer 1" xmlns="http://www.w3.org/2000/svg" viewBox="0 0 512.46 512">
    <path d="M189.37 251.59l59.15-65.33L71.08 7.94a27.71 27.71 0 0 0-38.84 0L8.4 31.78a27.71 27.71 0 0 0 0 38.84z" fill="#e15649"/>
    <path d="M470.09 506.7l42.37 5.3-6.18-43.26-38.82-26.48-24.72 25.6z" fill="#c3c7cb"/>
    <path d="M282.06 306.32L443.6 467.86l24.72-24.72L306.78 281.6z" fill="#e0e0e0"/>
    <path d="M194.67 203a8 8 0 0 1-6.18-2.64L38.46 50.32A8.74 8.74 0 0 1 50.78 38l150.07 150a8.54 8.54 0 0 1 0 12.36 8 8 0 0 1-6.18 2.64" fill="#bc342e"/>
    <path d="M282.06 147.42c20.3-20.3 22.95-52.08 1.77-73.27-41.49-41.49-65.37-37.07-112.11-37.07 70.62-30.9 121.82-38 173-14.13 22.06 9.71 30.89 18.54 48.55 36.19l31.78 31.78a54.63 54.63 0 0 1 15 29.14c2.65 16.77-1.76 20.3 9.71 32.66a8.54 8.54 0 0 0 12.36 0 8.54 8.54 0 0 1 12.36 0l30.9 30.89a17.07 17.07 0 0 1 0 24.72L442.72 271a17.07 17.07 0 0 1-24.72 0l-29.13-30a8.54 8.54 0 0 1 0-12.36 9.6 9.6 0 0 0 0-13.24c-12.35-12.36-15.89-7.94-32.66-9.71a51.69 51.69 0 0 1-29.13-15l-45-43.26" fill="#7f7c79"/>
    <path d="M282.06 147.42L8.4 453.74c-10.59 10.59-11.47 28.25-.88 38l12.36 12.36c10.59 10.59 27.37 9.71 38-.89L332.38 196z" fill="#565656"/>
    <path d="M238.8 300.14l24.72 24.72 62.68-62.68-28.25-28.25z" fill="#e15649"/>
</svg>
