<?xml version="1.0" standalone="no"?>
<!DOCTYPE svg PUBLIC "-//W3C//DTD SVG 20010904//EN"
 "http://www.w3.org/TR/2001/REC-SVG-20010904/DTD/svg10.dtd">
<svg version="1.0" xmlns="http://www.w3.org/2000/svg"
 width="221.000000pt" height="56.000000pt" viewBox="0 0 221.000000 56.000000"
 preserveAspectRatio="xMidYMid meet">

<g transform="translate(0.000000,56.000000) scale(0.100000,-0.100000)"
fill="#000000" stroke="none">
<path d="M81 534 c-30 -25 -31 -28 -31 -115 0 -53 4 -89 10 -89 6 0 10 33 10
80 0 73 3 83 25 105 13 14 34 25 45 25 21 0 70 -41 70 -59 0 -5 -11 -11 -25
-13 -14 -2 -26 -7 -26 -13 0 -5 12 -11 26 -13 35 -5 31 -22 -5 -22 -16 0 -30
-4 -30 -10 0 -5 14 -10 30 -10 20 0 30 -5 30 -15 0 -10 -10 -15 -30 -15 -16 0
-30 -4 -30 -10 0 -5 14 -10 30 -10 17 0 30 -4 30 -10 0 -5 -22 -10 -50 -10
l-50 0 0 80 c0 87 12 106 52 81 29 -18 37 -2 9 20 -30 25 -37 24 -66 -6 -24
-23 -25 -30 -25 -150 0 -112 -2 -130 -20 -152 -50 -64 -4 -163 77 -163 48 0
81 22 99 66 12 29 12 38 0 67 -8 17 -24 43 -35 57 -18 21 -21 22 -21 7 0 -11
9 -30 20 -44 36 -45 20 -90 -37 -107 -23 -7 -23 -7 -23 103 l0 111 35 0 c19 0
35 -4 35 -10 0 -5 -13 -10 -30 -10 -16 0 -30 -4 -30 -10 0 -5 12 -10 28 -10
28 0 31 -4 67 -79 43 -89 -54 -187 -147 -148 -71 30 -95 115 -50 176 22 31 28
51 14 51 -17 0 -62 -86 -62 -120 0 -103 121 -173 208 -120 71 44 92 128 47
194 -23 35 -25 45 -25 166 l0 128 -31 26 c-17 15 -43 26 -59 26 -16 0 -42 -11
-59 -26z"/>
<path d="M357 542 c-15 -9 -29 -24 -32 -33 -3 -9 -16 -21 -30 -27 -46 -21 -45
-103 0 -124 36 -16 45 0 12 24 -35 26 -35 55 2 76 17 9 35 27 40 40 23 49 102
48 121 -2 5 -13 18 -27 29 -31 43 -13 49 -65 10 -86 -22 -12 -25 -29 -5 -29
19 0 56 48 56 72 0 11 -27 46 -59 79 -65 65 -93 73 -144 41z"/>
<path d="M996 540 c-58 -23 -109 -69 -139 -125 -32 -59 -30 -164 3 -229 44
-86 125 -135 222 -136 72 0 88 6 88 37 0 18 -4 23 -17 19 -55 -16 -77 -16
-125 -2 -92 26 -148 104 -148 204 0 47 6 67 29 104 95 149 321 123 376 -43 9
-25 25 -55 35 -64 20 -18 20 -17 20 24 0 54 -39 130 -87 170 -73 60 -168 76
-257 41z"/>
<path d="M1873 536 c-88 -40 -97 -183 -14 -232 28 -17 31 -23 31 -71 l0 -53
35 0 35 0 0 53 c0 50 2 53 34 71 40 21 66 68 66 118 0 37 -29 92 -58 107 -35
19 -96 22 -129 7z m122 -28 c53 -42 66 -116 27 -160 -12 -14 -31 -18 -92 -18
-83 0 -101 10 -113 60 -24 97 100 180 178 118z"/>
<path d="M1920 510 c0 -5 5 -10 10 -10 6 0 10 5 10 10 0 6 -4 10 -10 10 -5 0
-10 -4 -10 -10z"/>
<path d="M1855 480 c3 -5 8 -10 11 -10 2 0 4 5 4 10 0 6 -5 10 -11 10 -5 0 -7
-4 -4 -10z"/>
<path d="M1990 479 c0 -5 5 -7 10 -4 6 3 10 8 10 11 0 2 -4 4 -10 4 -5 0 -10
-5 -10 -11z"/>
<path d="M1870 443 c0 -9 53 -53 64 -53 16 0 27 23 18 37 -6 9 -82 24 -82 16z"/>
<path d="M1828 413 c7 -3 16 -2 19 1 4 3 -2 6 -13 5 -11 0 -14 -3 -6 -6z"/>
<path d="M2018 413 c7 -3 16 -2 19 1 4 3 -2 6 -13 5 -11 0 -14 -3 -6 -6z"/>
<path d="M1855 350 c-3 -5 -1 -10 4 -10 6 0 11 5 11 10 0 6 -2 10 -4 10 -3 0
-8 -4 -11 -10z"/>
<path d="M1990 350 c0 -5 5 -10 11 -10 5 0 7 5 4 10 -3 6 -8 10 -11 10 -2 0
-4 -4 -4 -10z"/>
<path d="M1042 463 c-38 -8 -99 -74 -111 -121 -13 -46 0 -112 26 -134 21 -17
27 -1 9 26 -20 32 -21 98 -1 137 33 63 144 92 194 51 22 -17 22 -17 -43 -60
-66 -44 -76 -58 -54 -80 23 -23 45 -11 83 48 22 33 44 59 50 57 5 -2 16 -23
24 -46 12 -37 11 -48 -3 -84 -18 -48 -19 -57 -8 -57 14 0 42 69 42 101 0 51
-38 122 -77 141 -37 20 -95 29 -131 21z"/>
<path d="M354 395 c-23 -43 -11 -70 31 -70 42 0 54 27 31 70 -11 19 -24 35
-31 35 -7 0 -20 -16 -31 -35z m56 -37 c0 -12 -28 -10 -35 2 -4 6 -4 19 0 28 6
16 8 15 21 -2 8 -11 14 -23 14 -28z"/>
<path d="M440 360 c0 -5 7 -10 15 -10 8 0 15 5 15 10 0 6 -7 10 -15 10 -8 0
-15 -4 -15 -10z"/>
<path d="M441 301 c-28 -40 -22 -78 14 -87 54 -13 73 44 32 92 l-24 27 -22
-32z m49 -42 c0 -5 -9 -9 -20 -9 -19 0 -27 20 -13 33 7 8 33 -11 33 -24z"/>
<path d="M50 290 c0 -5 5 -10 10 -10 6 0 10 5 10 10 0 6 -4 10 -10 10 -5 0
-10 -4 -10 -10z"/>
<path d="M1259 223 c-54 -85 -64 -124 -44 -166 15 -33 50 -57 81 -57 46 0 94
52 94 101 0 23 -49 123 -76 157 l-19 22 -36 -57z"/>
<path d="M1860 146 c0 -8 -10 -16 -22 -18 -20 -3 -23 -10 -26 -60 l-3 -58 121
0 121 0 -3 58 c-3 50 -6 57 -25 60 -13 2 -23 10 -23 18 0 11 -16 14 -70 14
-54 0 -70 -3 -70 -14z"/>
<path d="M1694 116 c-3 -7 -4 -33 -2 -57 3 -42 5 -44 36 -47 24 -2 32 1 32 12
0 9 7 16 15 16 10 0 15 10 15 30 0 20 -5 30 -15 30 -8 0 -15 7 -15 15 0 19
-59 20 -66 1z"/>
<path d="M2104 116 c-3 -9 -12 -16 -20 -16 -9 0 -14 -11 -14 -30 0 -20 5 -30
15 -30 8 0 15 -7 15 -15 0 -10 11 -15 35 -15 l35 0 0 55 c0 41 -4 55 -14 55
-8 0 -21 3 -30 6 -10 4 -18 0 -22 -10z"/>
</g>
</svg>
