<?xml version="1.0" standalone="no"?>
<!DOCTYPE svg PUBLIC "-//W3C//DTD SVG 20010904//EN"
 "http://www.w3.org/TR/2001/REC-SVG-20010904/DTD/svg10.dtd">
<svg version="1.0" xmlns="http://www.w3.org/2000/svg"
 width="200.000000pt" height="200.000000pt" viewBox="0 0 200.000000 200.000000"
 preserveAspectRatio="xMidYMid meet">

<g transform="translate(0.000000,200.000000) scale(0.100000,-0.100000)"
fill="#000000" stroke="none">
<path d="M873 1935 c-161 -45 -286 -168 -334 -327 -18 -58 -21 -87 -17 -168 4
-87 9 -107 42 -175 45 -97 133 -187 224 -229 l62 -30 0 -93 0 -93 -155 0 -155
0 0 -35 0 -35 -160 0 -160 0 2 -177 3 -178 158 -3 157 -3 0 -29 0 -30 155 0
155 0 0 -90 0 -90 -45 0 -45 0 0 -50 0 -50 240 0 240 0 0 50 0 50 -45 0 -45 0
0 90 0 90 155 0 155 0 0 30 0 29 158 3 157 3 3 178 2 177 -160 0 -160 0 0 35
0 35 -155 0 -155 0 0 93 0 93 62 30 c91 42 179 132 224 229 33 68 38 88 42
175 4 81 1 110 -17 169 -42 137 -156 261 -288 311 -75 29 -225 36 -300 15z
m209 -56 c132 -28 244 -116 301 -236 30 -64 32 -75 32 -178 0 -98 -3 -116 -27
-167 -14 -31 -45 -77 -69 -102 l-42 -46 -280 2 -281 3 -42 52 c-164 200 -100
512 128 629 97 50 184 63 280 43z m-21 -1121 c58 -19 91 -49 116 -106 54 -118
-4 -240 -130 -273 -86 -24 -185 20 -222 97 -41 87 -26 171 43 236 57 55 122
70 193 46z"/>
<path d="M974 1847 c-3 -8 -4 -30 -2 -49 2 -28 7 -33 28 -33 23 0 25 4 25 45
0 39 -3 45 -23 48 -13 2 -24 -3 -28 -11z"/>
<path d="M727 1743 c-14 -13 -6 -40 16 -62 28 -26 57 -19 57 14 0 36 -51 70
-73 48z"/>
<path d="M1212 1725 c-22 -28 -20 -50 5 -60 22 -8 65 34 61 60 -5 31 -42 31
-66 0z"/>
<path d="M1134 1561 c-53 -25 -63 -27 -79 -15 -10 8 -36 14 -56 14 -29 0 -43
-7 -63 -31 -15 -17 -26 -43 -26 -59 0 -16 11 -42 26 -59 46 -55 130 -37 154
33 9 29 21 38 81 65 60 27 70 35 67 54 -4 31 -33 31 -104 -2z"/>
<path d="M614 1486 c-13 -33 4 -47 48 -44 38 3 43 6 43 28 0 22 -5 25 -43 28
-31 2 -44 -1 -48 -12z"/>
<path d="M1294 1486 c-13 -33 4 -47 48 -44 38 3 43 6 43 28 0 22 -5 25 -43 28
-31 2 -44 -1 -48 -12z"/>
<path d="M732 1245 c-22 -28 -20 -50 5 -60 22 -8 65 34 61 60 -5 31 -42 31
-66 0z"/>
<path d="M1207 1263 c-14 -13 -6 -40 16 -62 28 -26 57 -19 57 14 0 36 -51 70
-73 48z"/>
<path d="M964 671 c-67 -28 -85 -121 -35 -172 64 -64 171 -20 171 70 0 71 -75
127 -136 102z"/>
<path d="M57 782 c-15 -16 -17 -46 -17 -215 l0 -197 25 -16 c23 -15 27 -15 50
0 l25 16 0 205 c0 192 -1 205 -19 215 -28 15 -46 12 -64 -8z"/>
<path d="M1878 789 c-16 -9 -18 -30 -18 -212 0 -214 3 -227 46 -227 50 0 54
17 54 224 0 174 -2 195 -18 209 -21 19 -39 21 -64 6z"/>
</g>
</svg>
