<?xml version="1.0" standalone="no"?>
<!DOCTYPE svg PUBLIC "-//W3C//DTD SVG 20010904//EN"
 "http://www.w3.org/TR/2001/REC-SVG-20010904/DTD/svg10.dtd">
<svg version="1.0" xmlns="http://www.w3.org/2000/svg"
 width="200.000000pt" height="200.000000pt" viewBox="0 0 200.000000 200.000000"
 preserveAspectRatio="xMidYMid meet">

<g transform="translate(0.000000,200.000000) scale(0.100000,-0.100000)"
fill="#000000" stroke="none">
<path d="M881 1944 c-286 -77 -436 -395 -311 -662 39 -83 134 -183 213 -222
33 -17 66 -30 74 -30 10 0 13 -39 13 -195 l0 -195 110 0 110 0 0 189 0 189 30
6 c98 19 241 129 293 225 85 155 80 347 -13 492 -110 170 -326 255 -519 203z
m223 -59 c201 -52 338 -260 306 -462 -12 -71 -58 -167 -103 -215 l-35 -38
-275 0 -275 0 -34 42 c-81 98 -116 220 -98 332 40 246 276 403 514 341z"/>
<path d="M982 1861 c-8 -5 -12 -23 -10 -47 3 -34 6 -39 28 -39 22 0 25 5 28
39 3 34 -8 56 -28 56 -3 0 -11 -4 -18 -9z"/>
<path d="M727 1753 c-23 -23 12 -73 51 -73 16 0 22 6 22 23 0 38 -51 73 -73
50z"/>
<path d="M1217 1742 c-21 -23 -22 -51 -1 -59 21 -8 69 40 61 61 -8 21 -40 20
-60 -2z"/>
<path d="M770 1585 c-20 -25 -5 -40 69 -69 52 -20 71 -33 71 -46 0 -11 11 -31
24 -47 19 -22 32 -28 66 -28 100 0 126 132 34 171 -29 12 -38 12 -72 -2 -38
-14 -42 -14 -102 10 -74 30 -74 30 -90 11z"/>
<path d="M624 1495 c-11 -28 4 -45 39 -45 42 0 60 16 46 42 -12 23 -77 25 -85
3z"/>
<path d="M1290 1496 c-20 -25 5 -48 49 -44 31 3 36 7 36 28 0 21 -5 25 -36 28
-23 2 -40 -2 -49 -12z"/>
<path d="M740 1265 c-19 -20 -22 -30 -14 -42 16 -26 30 -26 60 1 24 20 27 28
18 43 -17 27 -37 27 -64 -2z"/>
<path d="M1200 1276 c-16 -20 -8 -40 25 -62 24 -16 27 -16 43 -1 15 16 15 19
-5 44 -24 33 -45 39 -63 19z"/>
<path d="M747 574 c-4 -4 -7 -31 -7 -61 l0 -53 -66 0 c-109 0 -104 10 -104
-214 0 -168 2 -195 16 -200 9 -3 197 -6 418 -6 299 0 405 3 414 12 8 8 12 66
12 194 0 218 2 214 -100 214 l-69 0 -3 58 -3 57 -251 3 c-138 1 -253 -1 -257
-4z"/>
<path d="M178 449 c-16 -9 -18 -30 -18 -203 0 -168 2 -195 16 -200 9 -3 56 -6
105 -6 l89 0 0 55 0 55 65 0 65 0 0 95 0 94 -62 3 -63 3 -3 58 -3 57 -87 0
c-48 0 -95 -5 -104 -11z"/>
<path d="M1630 395 l0 -55 -65 0 -65 0 0 -95 0 -95 65 0 65 0 0 -55 0 -56 103
3 102 3 0 200 0 200 -102 3 -103 3 0 -56z"/>
</g>
</svg>
