<?xml version="1.0" standalone="no"?>
<!DOCTYPE svg PUBLIC "-//W3C//DTD SVG 20010904//EN"
 "http://www.w3.org/TR/2001/REC-SVG-20010904/DTD/svg10.dtd">
<svg version="1.0" xmlns="http://www.w3.org/2000/svg"
 width="512.000000pt" height="512.000000pt" viewBox="0 0 512.000000 512.000000"
 preserveAspectRatio="xMidYMid meet">

<g transform="translate(0.000000,512.000000) scale(0.100000,-0.100000)"
fill="#000000" stroke="none">
<path d="M1125 5106 c-144 -29 -264 -84 -376 -174 -118 -94 -206 -212 -262
-354 -56 -140 -57 -150 -57 -899 l0 -689 105 0 104 0 3 698 3 697 24 70 c71
215 238 374 452 431 84 22 234 23 318 1 255 -67 447 -291 477 -556 l7 -61
-267 0 -266 0 0 -110 0 -110 265 0 265 0 0 -105 0 -105 -265 0 -265 0 0 -105
0 -105 265 0 265 0 0 -110 0 -110 -265 0 -265 0 0 -105 0 -105 265 0 265 0 0
-105 0 -105 -480 0 -481 0 3 678 3 677 28 57 c54 109 146 169 273 176 72 4 89
1 137 -21 73 -33 131 -87 163 -153 14 -30 29 -54 33 -54 3 0 46 11 96 23 64
17 91 28 93 40 7 33 -60 148 -125 218 -210 223 -556 223 -766 0 -68 -72 -118
-160 -136 -241 -7 -30 -11 -436 -11 -1176 l0 -1132 -55 -42 c-171 -132 -297
-328 -352 -546 -23 -95 -24 -333 0 -426 64 -258 227 -481 445 -612 90 -54 242
-109 342 -125 594 -95 1138 394 1106 994 -3 61 -15 146 -26 189 -22 88 -91
240 -140 311 -44 65 -140 165 -205 215 l-55 42 0 79 0 79 -105 0 -105 0 0
-129 c0 -71 3 -136 6 -145 3 -9 40 -40 83 -69 142 -101 244 -234 297 -392 21
-62 28 -106 32 -197 4 -105 3 -120 -17 -162 -29 -59 -147 -185 -227 -242 -124
-88 -309 -154 -436 -154 l-58 0 0 1010 0 1010 320 0 320 0 0 -105 0 -105 -270
0 -270 0 0 -112 0 -111 270 7 270 7 0 -101 0 -102 103 -106 c116 -122 160
-184 223 -316 123 -260 133 -563 27 -830 -63 -160 -140 -273 -264 -391 -316
-299 -784 -375 -1175 -191 -121 58 -203 114 -296 204 -324 313 -414 804 -224
1208 60 126 113 201 228 320 l98 103 0 100 0 101 -105 0 -105 0 0 -57 0 -58
-71 -70 c-160 -159 -282 -391 -335 -635 -26 -119 -26 -381 0 -500 97 -449 403
-802 826 -955 327 -118 705 -92 1019 70 118 61 210 129 314 232 493 490 501
1294 17 1789 l-69 71 -3 1094 -3 1094 -23 75 c-53 171 -168 341 -300 441 -80
61 -223 131 -312 154 -90 22 -277 28 -365 11z"/>
<path d="M3585 5106 c-312 -61 -550 -267 -659 -570 l-21 -58 -73 -19 c-228
-58 -414 -246 -468 -474 -23 -102 -15 -256 19 -353 54 -155 173 -289 319 -362
81 -39 190 -69 256 -70 l32 0 0 109 0 108 -57 6 c-131 14 -264 113 -326 245
-30 62 -32 75 -32 172 0 97 2 110 32 172 66 139 198 235 340 245 118 9 139 29
172 161 45 183 162 332 322 411 122 59 192 74 319 68 67 -3 129 -12 170 -26
197 -63 357 -230 411 -426 43 -159 54 -171 178 -185 111 -13 190 -51 265 -129
31 -33 69 -86 84 -118 24 -52 27 -69 27 -173 0 -104 -3 -121 -27 -173 -60
-127 -202 -233 -329 -244 l-59 -6 0 -110 0 -110 63 7 c261 30 486 226 551 482
20 78 20 220 0 304 -41 175 -174 342 -334 419 -46 23 -110 46 -142 53 -57 12
-59 13 -69 53 -18 69 -97 217 -152 285 -157 193 -384 306 -632 315 -69 3 -136
-1 -180 -9z"/>
<path d="M3464 3931 c-68 -41 -272 -325 -330 -459 -42 -97 -49 -144 -34 -229
16 -95 54 -169 121 -236 246 -246 659 -111 719 236 7 37 9 87 6 110 -16 102
-124 292 -272 476 -71 88 -113 121 -154 121 -14 0 -39 -9 -56 -19z m128 -357
c76 -105 138 -226 138 -270 0 -19 -7 -50 -14 -69 l-15 -35 -70 0 c-118 0 -211
47 -270 137 l-30 45 21 42 c47 93 154 239 172 233 6 -2 37 -39 68 -83z"/>
<path d="M4050 3310 l0 -110 110 0 110 0 0 110 0 110 -110 0 -110 0 0 -110z"/>
<path d="M4172 2933 c-124 -133 -271 -360 -311 -480 -89 -266 150 -554 438
-530 133 11 252 81 322 190 55 84 72 151 67 250 -4 72 -10 89 -61 190 -59 116
-181 289 -265 377 -45 47 -52 50 -97 50 -45 0 -52 -3 -93 -47z m173 -328 c32
-44 76 -118 98 -164 l41 -83 -15 -57 -14 -56 -90 0 c-73 1 -98 5 -133 23 -56
30 -114 82 -137 126 l-18 34 37 64 c21 34 63 98 94 141 64 89 52 91 137 -28z"/>
<path d="M430 2665 l0 -105 105 0 105 0 0 105 0 105 -105 0 -105 0 0 -105z"/>
</g>
</svg>
