<?xml version="1.0" standalone="no"?>
<!DOCTYPE svg PUBLIC "-//W3C//DTD SVG 20010904//EN"
 "http://www.w3.org/TR/2001/REC-SVG-20010904/DTD/svg10.dtd">
<svg version="1.0" xmlns="http://www.w3.org/2000/svg"
 width="200.000000pt" height="200.000000pt" viewBox="0 0 200.000000 200.000000"
 preserveAspectRatio="xMidYMid meet">

<g transform="translate(0.000000,200.000000) scale(0.100000,-0.100000)"
fill="#000000" stroke="none">
<path d="M697 1579 c-21 -12 -47 -61 -47 -89 0 -33 26 -75 55 -88 39 -18 65
-15 110 13 50 31 100 33 115 5 6 -11 10 -46 8 -78 l-3 -57 -47 -3 c-66 -4 -88
-33 -88 -117 l0 -63 -65 -66 -65 -66 -215 0 c-197 0 -216 2 -221 18 -13 44
-32 67 -61 75 -39 12 -77 3 -103 -23 -19 -19 -20 -34 -20 -259 0 -276 1 -279
82 -288 40 -5 50 -2 72 20 14 14 26 35 26 47 0 20 5 20 224 20 l225 0 50 -53
c28 -30 77 -67 108 -83 53 -26 67 -29 158 -29 93 0 105 2 168 33 44 22 81 50
109 83 l43 49 222 0 223 0 6 -25 c15 -62 100 -85 151 -41 l28 24 3 228 c3 250
-1 274 -50 295 -60 25 -111 -4 -132 -73 -5 -16 -24 -18 -221 -18 l-216 0 -63
64 -64 64 -4 70 c-5 91 -22 112 -90 112 l-48 0 0 68 c0 40 5 73 12 80 19 19
73 14 102 -9 15 -12 44 -23 64 -26 31 -4 44 0 69 21 37 31 48 67 33 111 -22
66 -99 85 -160 40 -41 -30 -84 -32 -125 -5 -38 25 -76 25 -117 0 -44 -27 -77
-25 -118 5 -36 26 -91 33 -123 14z m382 -545 c61 -18 132 -77 164 -139 16 -30
22 -58 22 -115 0 -65 -4 -82 -30 -129 -49 -89 -135 -139 -235 -139 -100 0
-186 50 -235 139 -26 47 -30 64 -30 129 1 87 20 132 83 194 42 40 124 75 178
76 17 0 54 -7 83 -16z"/>
<path d="M986 949 c-9 -13 -19 -41 -23 -61 -7 -45 -13 -47 -35 -11 l-16 28 -7
-26 c-4 -14 -2 -50 3 -80 6 -30 8 -56 5 -59 -3 -3 -16 9 -29 25 l-24 30 0 -63
c0 -57 3 -65 34 -99 31 -34 39 -37 98 -41 61 -4 67 -2 101 28 45 39 64 92 47
135 -12 29 -12 29 -20 9 -9 -23 -28 -39 -36 -31 -3 2 1 25 8 50 10 41 10 51
-6 84 -10 21 -20 34 -21 28 -2 -5 -6 -23 -10 -40 l-7 -30 -10 25 c-5 14 -15
47 -22 74 l-13 49 -17 -24z"/>
</g>
</svg>
