<?xml version="1.0" standalone="no"?>
<!DOCTYPE svg PUBLIC "-//W3C//DTD SVG 20010904//EN"
 "http://www.w3.org/TR/2001/REC-SVG-20010904/DTD/svg10.dtd">
<svg version="1.0" xmlns="http://www.w3.org/2000/svg"
 width="512.000000pt" height="512.000000pt" viewBox="0 0 512.000000 512.000000"
 preserveAspectRatio="xMidYMid meet">

<g transform="translate(0.000000,512.000000) scale(0.100000,-0.100000)"
fill="#000000" stroke="none">
<path d="M1613 5105 c-65 -18 -123 -56 -160 -103 -67 -86 -324 -466 -465 -687
-474 -744 -758 -1311 -868 -1730 -81 -310 -30 -691 137 -1017 236 -464 684
-789 1198 -869 127 -20 401 -17 520 5 55 10 104 22 108 26 5 4 -16 25 -45 46
-88 63 -187 154 -262 240 -339 386 -470 914 -354 1418 107 466 435 871 873
1076 148 70 309 118 448 135 31 4 57 12 57 17 0 14 -179 319 -311 529 -214
341 -502 767 -562 832 -71 76 -208 112 -314 82z m-898 -2242 c43 -22 84 -62
107 -107 22 -44 22 -113 -2 -266 -25 -155 5 -369 70 -507 42 -91 83 -148 175
-243 91 -94 115 -138 115 -212 0 -124 -95 -220 -219 -220 -85 -1 -125 22 -232
132 -186 189 -293 392 -346 658 -33 165 -21 485 24 625 42 133 188 199 308
140z"/>
<path d="M2815 3369 c-481 -59 -909 -398 -1070 -847 -172 -482 -62 -1006 288
-1365 178 -182 382 -299 632 -363 138 -36 377 -44 526 -19 172 28 348 96 494
190 30 19 59 35 63 35 4 0 38 -31 76 -69 46 -46 64 -71 56 -76 -22 -13 -50
-89 -50 -134 0 -25 9 -63 20 -85 12 -26 122 -143 297 -318 289 -287 326 -317
403 -318 85 0 107 14 284 189 176 173 205 214 206 286 0 97 -3 101 -309 409
-187 188 -300 295 -326 307 -59 27 -127 25 -187 -8 l-49 -27 -64 64 c-36 36
-65 69 -65 75 0 6 15 33 34 61 151 224 224 514 205 810 -31 467 -318 884 -750
1088 -100 48 -231 89 -332 106 -93 15 -292 20 -382 9z m408 -433 c263 -79 478
-266 579 -507 222 -530 -69 -1108 -628 -1246 -96 -23 -295 -24 -394 0 -183 43
-328 126 -458 261 -176 183 -261 410 -249 661 21 424 309 761 727 850 106 23
314 14 423 -19z"/>
<path d="M2293 2434 c-124 -62 -77 -244 62 -244 42 0 52 5 86 39 33 32 39 45
39 80 0 54 -21 94 -63 120 -41 25 -80 26 -124 5z"/>
<path d="M2275 2036 c-17 -7 -44 -28 -59 -47 -25 -29 -28 -39 -24 -84 6 -66
56 -189 114 -278 94 -145 240 -267 380 -320 185 -69 257 -63 304 25 48 91 -2
171 -125 202 -187 47 -336 190 -405 391 -23 68 -43 93 -87 111 -40 17 -59 17
-98 0z"/>
</g>
</svg>
