<?xml version="1.0" standalone="no"?>
<!DOCTYPE svg PUBLIC "-//W3C//DTD SVG 20010904//EN"
 "http://www.w3.org/TR/2001/REC-SVG-20010904/DTD/svg10.dtd">
<svg version="1.0" xmlns="http://www.w3.org/2000/svg"
 width="256.000000pt" height="256.000000pt" viewBox="0 0 256.000000 256.000000"
 preserveAspectRatio="xMidYMid meet">

<g transform="translate(0.000000,256.000000) scale(0.100000,-0.100000)"
fill="#000000" stroke="none">
<path d="M1149 2531 c-27 -27 -29 -35 -29 -101 l0 -72 33 7 c46 10 47 11 47
66 l0 49 80 0 80 0 0 -49 c0 -55 1 -56 48 -66 l32 -7 0 72 c0 66 -2 74 -29
101 -29 28 -32 29 -131 29 -99 0 -102 -1 -131 -29z"/>
<path d="M1184 2285 c-83 -18 -138 -48 -205 -112 -181 -172 -180 -454 1 -627
173 -165 427 -165 600 0 182 173 183 454 2 626 -70 67 -122 95 -211 114 -80
17 -107 16 -187 -1z m248 -97 c72 -33 142 -103 176 -176 23 -49 27 -70 27
-152 0 -82 -4 -103 -27 -152 -34 -73 -103 -142 -176 -176 -49 -23 -70 -27
-152 -27 -82 0 -103 4 -152 27 -249 116 -281 464 -57 621 74 52 128 67 224 64
61 -2 94 -10 137 -29z"/>
<path d="M1216 2068 c-60 -16 -130 -91 -146 -156 -19 -79 0 -143 60 -202 154
-155 408 -15 360 198 -16 73 -83 143 -152 160 -54 14 -69 14 -122 0z m130 -84
c68 -33 97 -134 55 -198 -77 -117 -261 -68 -261 69 0 109 106 176 206 129z"/>
<path d="M927 1462 c-2 -4 -48 -150 -102 -324 l-99 -318 -63 0 c-60 0 -63 1
-63 24 0 43 -24 56 -103 56 -91 0 -135 -20 -161 -74 -17 -36 -18 -43 -5 -80
22 -63 64 -86 160 -86 85 0 109 12 109 56 0 22 4 24 51 24 38 0 50 -3 46 -13
-36 -94 -98 -322 -93 -342 3 -13 21 -41 38 -61 28 -32 34 -51 55 -167 25 -138
40 -170 71 -151 11 7 59 137 138 370 l121 359 106 3 107 3 0 -25 c0 -24 23
-56 40 -56 17 0 40 32 40 56 l0 25 107 -3 106 -3 121 -359 c79 -233 127 -363
138 -370 31 -19 46 13 71 151 21 116 27 135 55 167 17 20 35 48 38 61 5 20
-57 248 -93 342 -4 10 8 13 46 13 47 0 51 -2 51 -24 0 -44 24 -56 109 -56 96
0 138 23 160 86 13 37 12 44 -5 80 -26 54 -70 74 -161 74 -79 0 -103 -13 -103
-56 0 -23 -3 -24 -63 -24 l-63 0 -99 318 c-54 174 -101 320 -104 324 -3 3 -19
-4 -35 -17 l-29 -23 156 -500 c87 -275 157 -509 157 -520 0 -14 -11 -27 -29
-36 -30 -16 -35 -28 -46 -108 -4 -27 -10 -48 -14 -48 -3 1 -89 253 -191 561
-102 308 -188 565 -191 571 -3 5 -21 7 -41 3 l-36 -7 84 -251 c46 -138 84
-255 84 -259 0 -5 -40 -8 -90 -8 -89 0 -90 0 -90 24 0 24 -23 56 -40 56 -17 0
-40 -32 -40 -56 0 -24 -1 -24 -90 -24 -49 0 -90 3 -90 8 0 4 38 121 84 259
l84 251 -36 7 c-20 4 -38 2 -41 -3 -3 -6 -89 -263 -191 -571 -102 -308 -188
-560 -191 -561 -4 0 -10 21 -14 47 -11 81 -16 93 -46 109 -18 9 -29 22 -29 36
0 11 70 243 155 515 85 272 155 498 155 502 0 11 -58 52 -63 43z m-407 -682
l0 -40 -48 0 c-50 0 -72 12 -72 40 0 28 22 40 72 40 l48 0 0 -40z m1634 18
c19 -31 -4 -53 -63 -56 l-51 -3 0 41 0 41 51 -3 c36 -2 55 -8 63 -20z"/>
</g>
</svg>
