<?xml version="1.0" standalone="no"?>
<!DOCTYPE svg PUBLIC "-//W3C//DTD SVG 20010904//EN"
 "http://www.w3.org/TR/2001/REC-SVG-20010904/DTD/svg10.dtd">
<svg version="1.0" xmlns="http://www.w3.org/2000/svg"
 width="452.000000pt" height="512.000000pt" viewBox="0 0 452.000000 512.000000"
 preserveAspectRatio="xMidYMid meet">

<g transform="translate(0.000000,512.000000) scale(0.100000,-0.100000)"
fill="#000000" stroke="none">
<path d="M222 5101 c-29 -10 -70 -32 -90 -48 -46 -37 -99 -113 -112 -163 -7
-25 -9 -799 -8 -2351 l3 -2314 23 -43 c35 -66 88 -119 150 -149 l57 -28 1108
-3 c1022 -2 1111 -1 1144 15 69 32 94 123 53 190 -40 67 33 63 -1155 63 -723
0 -1083 3 -1096 10 -19 11 -19 47 -19 2280 0 2233 0 2269 19 2280 13 7 629 10
1920 10 1714 0 1901 -2 1915 -16 14 -14 16 -135 16 -1187 0 -680 4 -1189 10
-1212 5 -24 21 -51 41 -69 29 -26 37 -28 90 -24 39 3 65 11 80 24 51 45 49 -2
49 1288 0 1187 0 1206 -20 1260 -27 72 -88 139 -158 173 l-57 28 -1955 2
c-1873 2 -1957 2 -2008 -16z"/>
<path d="M2320 4204 c-77 -21 -131 -55 -184 -117 -40 -48 -49 -53 -79 -49 -58
7 -149 -16 -237 -60 -82 -40 -89 -42 -183 -43 l-98 -1 -18 31 c-36 62 -72 70
-296 70 -233 0 -253 -6 -293 -87 l-23 -46 31 -384 c17 -210 36 -401 41 -423
14 -56 53 -111 91 -132 27 -15 58 -18 178 -17 80 0 157 3 172 7 40 11 95 63
108 102 11 33 14 35 60 35 l48 0 88 -156 c101 -178 141 -229 198 -255 54 -24
148 -24 201 0 29 13 47 16 65 9 34 -13 120 -12 155 2 16 6 45 23 64 37 29 22
43 26 92 24 58 -2 97 11 148 50 17 14 33 17 60 13 49 -8 113 10 152 43 39 34
71 103 67 146 -3 30 -1 32 31 35 27 3 40 -3 70 -32 21 -20 53 -41 72 -46 46
-13 264 -13 314 1 56 15 93 54 110 114 7 27 30 222 50 432 36 377 37 383 18
420 -38 78 -108 97 -338 91 -134 -3 -155 -6 -194 -26 l-45 -24 -125 86 c-151
101 -207 131 -292 151 -80 19 -207 18 -279 -1z m300 -101 c32 -10 117 -60 205
-119 l150 -101 3 -376 2 -377 -52 0 -53 0 -175 318 c-96 174 -190 334 -208
354 -70 78 -137 64 -277 -58 -110 -94 -145 -114 -203 -114 -39 0 -82 28 -82
54 0 20 295 368 335 395 77 52 236 63 355 24z m-1186 -182 c15 -17 16 -55 14
-431 l-3 -412 -24 -19 c-20 -17 -40 -19 -162 -19 -162 0 -170 4 -188 92 -12
59 -61 644 -61 732 0 42 4 57 18 65 10 6 95 11 203 11 169 0 187 -2 203 -19z
m534 -33 c-23 -29 -64 -77 -90 -107 -54 -63 -59 -90 -28 -151 38 -74 122 -109
215 -90 59 12 123 54 234 153 64 58 93 68 124 45 9 -7 104 -171 212 -365 136
-246 195 -361 195 -383 0 -48 -40 -82 -93 -78 l-42 3 -85 158 c-47 88 -92 159
-102 163 -26 8 -58 -14 -58 -39 0 -13 34 -87 75 -164 41 -78 75 -144 75 -147
0 -14 -67 -46 -96 -46 -37 0 -40 3 -138 158 -43 67 -86 126 -95 131 -9 5 -26
5 -38 0 -40 -15 -29 -54 57 -186 44 -68 80 -125 80 -127 0 -13 -72 -46 -98
-46 -62 0 -77 14 -136 123 -63 118 -75 132 -110 123 -44 -11 -41 -39 16 -146
45 -85 51 -102 38 -110 -22 -14 -76 -12 -115 4 -39 17 -53 36 -178 252 l-92
159 -73 3 -72 3 0 329 0 330 111 0 c92 0 115 3 137 19 61 43 146 79 190 80 22
1 21 -3 -20 -51z m1312 -578 c24 -24 26 -57 3 -82 -33 -37 -103 -11 -103 39 0
28 33 63 60 63 11 0 29 -9 40 -20z"/>
<path d="M1245 3305 c-29 -28 -31 -42 -9 -73 18 -26 65 -30 88 -6 24 23 20 70
-6 88 -31 22 -45 20 -73 -9z"/>
<path d="M981 2053 c-67 -33 -92 -124 -51 -190 41 -67 -41 -63 1227 -63 l1149
0 39 47 c22 26 45 55 51 66 14 25 2 81 -23 109 -44 50 -5 48 -1220 48 -1041 0
-1141 -2 -1172 -17z"/>
<path d="M3940 1987 c-27 -9 -58 -41 -132 -132 -53 -66 -97 -124 -97 -130 0
-8 499 -407 579 -463 17 -12 25 -5 94 81 41 52 86 112 100 132 31 45 34 98 8
137 -14 24 -388 326 -447 363 -32 20 -68 24 -105 12z"/>
<path d="M3324 1234 l-289 -374 -32 -273 c-19 -157 -32 -308 -30 -357 2 -78 4
-85 23 -88 11 -2 117 35 235 81 118 46 257 100 309 120 l95 37 283 365 c156
201 285 371 288 378 3 8 -78 78 -203 177 -114 90 -249 196 -299 236 l-91 72
-289 -374z m11 -614 c105 -82 189 -152 188 -156 -1 -3 -89 -46 -195 -94 -106
-48 -205 -93 -221 -100 -53 -26 -53 -12 -12 255 22 135 41 245 44 245 4 0 92
-67 196 -150z"/>
<path d="M933 1301 c-71 -33 -97 -110 -61 -181 43 -86 -24 -80 969 -80 l876 0
99 127 c55 69 103 132 107 140 7 11 -159 13 -970 13 -939 0 -980 -1 -1020 -19z"/>
</g>
</svg>
