<?xml version="1.0" standalone="no"?>
<!DOCTYPE svg PUBLIC "-//W3C//DTD SVG 20010904//EN"
 "http://www.w3.org/TR/2001/REC-SVG-20010904/DTD/svg10.dtd">
<svg version="1.0" xmlns="http://www.w3.org/2000/svg"
 width="512.000000pt" height="512.000000pt" viewBox="0 0 512.000000 512.000000"
 preserveAspectRatio="xMidYMid meet">

<g transform="translate(0.000000,512.000000) scale(0.100000,-0.100000)"
fill="#000000" stroke="none">
<path d="M2195 5114 c-552 -45 -1077 -278 -1467 -653 -391 -374 -628 -842
-709 -1396 -20 -135 -17 -473 5 -615 41 -271 108 -485 220 -715 302 -614 850
-1061 1511 -1231 218 -56 331 -69 590 -69 302 0 436 20 678 102 119 40 114 33
92 133 -8 36 -18 129 -21 206 l-7 141 -93 -38 c-203 -85 -403 -123 -644 -122
-311 1 -539 50 -815 177 -520 238 -910 708 -1050 1266 -75 300 -75 648 1 945
88 347 250 633 503 886 253 253 539 415 886 503 375 95 806 69 1160 -70 431
-170 793 -494 1015 -906 77 -143 156 -372 181 -526 9 -54 16 -72 27 -70 9 2
95 -97 221 -253 238 -297 218 -291 228 -64 10 251 -29 513 -118 780 -279 838
-1007 1441 -1894 1571 -100 14 -406 25 -500 18z"/>
<path d="M2285 4263 c-597 -22 -1123 -404 -1336 -970 -104 -273 -119 -609 -43
-908 48 -188 165 -411 278 -532 25 -28 37 -33 74 -33 35 0 49 6 74 30 44 44
36 96 -25 181 -154 217 -225 422 -234 685 -9 244 25 411 127 619 71 147 148
252 266 365 106 102 196 163 336 230 178 84 341 120 550 120 237 0 447 -57
648 -175 83 -49 190 -130 190 -144 0 -5 -192 -150 -426 -321 -359 -263 -434
-314 -480 -326 -78 -20 -124 -46 -171 -96 -114 -124 -108 -320 13 -440 121
-121 322 -120 444 2 47 47 69 88 86 157 10 44 60 118 326 482 172 237 318 429
323 427 6 -1 35 -35 66 -75 252 -326 324 -799 183 -1194 -38 -103 -87 -198
-160 -305 -68 -99 -75 -125 -47 -172 20 -34 52 -50 98 -50 42 0 81 36 147 136
290 441 325 1006 90 1479 -56 113 -138 238 -203 309 l-51 56 64 87 c35 49 68
94 72 101 5 8 -35 -18 -87 -57 -53 -39 -100 -71 -105 -71 -5 0 -17 10 -28 21
-28 31 -160 130 -229 171 -195 116 -427 191 -629 204 -45 3 -94 6 -111 7 -16
1 -57 1 -90 0z"/>
<path d="M4165 2422 c-140 -193 -296 -431 -402 -612 -325 -557 -406 -880 -301
-1200 59 -182 168 -332 323 -448 80 -59 156 -96 262 -128 114 -34 298 -39 408
-10 95 24 236 93 312 150 180 137 310 366 343 606 35 253 -71 574 -343 1035
-141 241 -396 618 -496 737 -3 4 -51 -55 -106 -130z"/>
</g>
</svg>
