<?xml version="1.0" encoding="UTF-8" standalone="no"?>
<!DOCTYPE svg PUBLIC "-//W3C//DTD SVG 1.1//EN" "http://www.w3.org/Graphics/SVG/1.1/DTD/svg11.dtd">
<svg width="100%" height="100%" viewBox="0 0 60 22" version="1.1" xmlns="http://www.w3.org/2000/svg" xmlns:xlink="http://www.w3.org/1999/xlink" xml:space="preserve" xmlns:serif="http://www.serif.com/" style="fill-rule:evenodd;clip-rule:evenodd;">
    <g id="Artboard1" transform="matrix(0.360322,0,0,0.210612,18.5018,6.41686)">
        <rect x="-51.348" y="-30.468" width="166.518" height="100.659" style="fill:none;"/>
        <g transform="matrix(2.61849,0,0,4.47979,-199.905,-330.575)">
            <g id="Layer1000">
                <g id="Layer1001">
                    <path id="path4" d="M58.097,68.552L76.442,68.552" style="fill:none;"/>
                    <path id="path6" d="M58.463,69.29L76.082,69.29" style="fill:none;"/>
                    <path id="path8" d="M58.83,70.028L75.721,70.028" style="fill:none;"/>
                    <path id="path10" d="M59.197,70.766L75.361,70.766" style="fill:none;"/>
                    <path id="path12" d="M59.564,71.503L75.001,71.503" style="fill:none;"/>
                    <path id="path14" d="M59.931,72.241L74.64,72.241" style="fill:none;"/>
                    <path id="path16" d="M60.298,72.979L74.28,72.979" style="fill:none;"/>
                    <path id="path18" d="M60.665,73.717L73.92,73.717" style="fill:none;"/>
                    <path id="path20" d="M61.032,74.455L73.56,74.455" style="fill:none;"/>
                    <path id="path22" d="M61.399,75.193L73.2,75.193" style="fill:none;"/>
                    <path id="path24" d="M61.765,75.931L72.839,75.931" style="fill:none;"/>
                    <path id="path26" d="M62.132,76.669L72.479,76.669" style="fill:none;"/>
                    <path id="path28" d="M62.499,77.406L72.119,77.406" style="fill:none;"/>
                    <path id="path30" d="M62.866,78.144L71.758,78.144" style="fill:none;"/>
                    <path id="path32" d="M63.233,78.882L71.398,78.882" style="fill:none;"/>
                    <path id="path34" d="M63.6,79.62L71.038,79.62" style="fill:none;"/>
                    <path id="path36" d="M63.967,80.358L70.677,80.358" style="fill:none;"/>
                    <path id="path38" d="M64.334,81.096L70.317,81.096" style="fill:none;"/>
                    <path id="path40" d="M64.701,81.834L69.957,81.834" style="fill:none;"/>
                    <path id="path42" d="M65.067,82.571L69.597,82.571" style="fill:none;"/>
                    <path id="path44" d="M66.902,86.26L67.795,86.26" style="fill:none;"/>
                    <path id="path46" d="M57.73,67.814L77.025,67.814L77.025,77.695L72.047,87.395L57.73,87.395L57.73,67.814Z" style="fill:none;fill-rule:nonzero;"/>
                    <path id="path48" d="M57.613,67.627L77.141,67.627L77.141,79.506L77.128,79.558L73.026,87.447L72.993,87.511L57.613,87.511L57.613,67.627ZM76.908,67.861L57.846,67.861L57.846,87.278L72.852,87.278L76.908,79.478L76.908,67.861Z" style="fill:rgb(255,203,0);stroke:rgb(255,203,0);stroke-width:0.16px;"/>
                    <path id="path50" d="M57.868,68.007L67.391,87.191L76.886,67.759" style="fill:none;fill-rule:nonzero;"/>
                    <path id="path52" d="M57.95,67.868L67.413,86.93L76.803,67.708L77.012,67.81L67.519,87.243L67.415,87.455L67.31,87.244L57.742,67.971L57.95,67.868Z" style="fill:rgb(255,203,0);stroke:rgb(255,203,0);stroke-width:0.2px;"/>
                    <path id="path54" d="M109.097,81.243L104.777,81.243L104.777,82.399L108.272,82.399L108.272,84.312L104.777,84.312L104.777,85.411L109.097,85.411L109.097,87.275L102.124,87.275L102.124,79.478L109.097,79.478L109.097,81.243Z" style="fill:rgb(255,203,0);"/>
                    <path id="path56" d="M98.623,81.823L98.623,87.374L95.94,87.374L95.94,81.823L93.558,81.823L93.558,79.478L101.109,79.478L101.109,81.823L98.623,81.823Z" style="fill:rgb(255,203,0);"/>
                    <path id="path58" d="M116.486,79.478L119.448,79.478L113.094,87.053L110.136,87.053L116.486,79.478Z" style="fill:rgb(255,203,0);"/>
                    <path id="path60" d="M113.097,79.478L110.136,79.478L116.489,87.053L119.447,87.053L113.097,79.478Z" style="fill:rgb(255,203,0);"/>
                    <path id="path62" d="M90.985,83.929L95.494,88.825L92.342,88.825L88.121,84.068L88.095,84.068L88.095,87.335L85.563,87.335L85.563,79.478L89.348,79.478C90.312,79.484 91.117,79.67 91.763,80.036C92.408,80.402 92.731,80.984 92.731,81.783C92.731,82.297 92.548,82.754 92.182,83.153C91.816,83.552 91.289,83.797 90.6,83.89L90.985,83.929ZM88.095,81.184L88.095,82.599L88.34,82.599C88.384,82.599 88.426,82.609 88.469,82.609C88.512,82.609 88.552,82.61 88.586,82.609C88.964,82.598 89.685,82.639 89.999,82.517C90.313,82.396 90.471,82.264 90.471,81.901C90.471,81.535 90.314,81.422 89.999,81.3C89.686,81.177 88.964,81.196 88.586,81.184C88.552,81.183 88.512,81.184 88.469,81.184L88.095,81.184Z" style="fill:rgb(255,203,0);"/>
                    <path id="path64" d="M76.339,83.435C76.339,82.187 76.708,81.215 77.442,80.521C78.178,79.825 79.203,79.478 80.515,79.478C81.861,79.478 82.899,79.819 83.627,80.503C84.354,81.185 84.719,82.142 84.719,83.372C84.719,84.266 84.559,84.999 84.241,85.571C83.923,86.142 83.463,86.587 82.863,86.906C82.26,87.224 81.513,87.383 80.615,87.383C79.704,87.383 78.949,87.246 78.35,86.972C77.753,86.696 77.269,86.261 76.896,85.667C76.525,85.072 76.339,84.328 76.339,83.435ZM78.984,83.445C78.984,84.218 79.134,84.654 79.437,84.992C79.74,85.328 80.01,85.497 80.532,85.497C81.069,85.497 81.389,85.332 81.682,85.003C81.976,84.672 82.125,84.197 82.125,83.342C82.125,82.621 81.971,82.315 81.663,81.982C81.357,81.651 81.037,81.486 80.509,81.486C80.007,81.486 79.746,81.654 79.441,81.991C79.137,82.328 78.984,82.667 78.984,83.445Z" style="fill:rgb(255,203,0);"/>
                    <path id="path66" d="M69.39,79.478L71.562,84.134L73.722,79.478L76.929,79.478L72.89,87.374L70.101,87.322L66.232,79.478L69.39,79.478Z" style="fill:rgb(255,203,0);"/>
                    <path id="path68" d="M66.126,84.389L68.628,84.389L68.499,84.654L66.257,84.654L66.126,84.389Z" style="fill:rgb(255,203,0);"/>
                    <path id="path70" d="M66.539,85.229L68.215,85.229L68.086,85.494L66.671,85.494L66.539,85.229Z" style="fill:rgb(255,203,0);"/>
                    <path id="path72" d="M66.953,86.068L67.802,86.068L67.672,86.333L67.084,86.333L66.953,86.068Z" style="fill:rgb(255,203,0);"/>
                    <path id="path74" d="M58.27,68.436L76.485,68.436L76.355,68.7L58.401,68.7L58.27,68.436Z" style="fill:rgb(255,203,0);"/>
                    <path id="path76" d="M58.683,69.276L76.071,69.276L75.942,69.54L58.814,69.54L58.683,69.276Z" style="fill:rgb(255,203,0);"/>
                    <path id="path78" d="M59.097,70.115L75.658,70.115L75.528,70.38L59.228,70.38L59.097,70.115Z" style="fill:rgb(255,203,0);"/>
                    <path id="path80" d="M59.51,70.955L75.244,70.955L75.115,71.22L59.641,71.22L59.51,70.955Z" style="fill:rgb(255,203,0);"/>
                    <path id="path82" d="M59.923,71.794L74.831,71.794L74.702,72.059L60.055,72.059L59.923,71.794Z" style="fill:rgb(255,203,0);"/>
                    <path id="path84" d="M60.337,72.634L74.417,72.634L74.288,72.899L60.469,72.899L60.337,72.634Z" style="fill:rgb(255,203,0);"/>
                    <path id="path86" d="M60.751,73.474L74.004,73.474L73.875,73.738L60.882,73.738L60.751,73.474Z" style="fill:rgb(255,203,0);"/>
                    <path id="path88" d="M61.164,74.313L73.59,74.313L73.461,74.578L61.295,74.578L61.164,74.313Z" style="fill:rgb(255,203,0);"/>
                    <path id="path90" d="M61.577,75.153L73.177,75.153L73.047,75.418L61.709,75.418L61.577,75.153Z" style="fill:rgb(255,203,0);"/>
                    <path id="path92" d="M61.991,75.993L72.763,75.993L72.634,76.258L62.123,76.258L61.991,75.993Z" style="fill:rgb(255,203,0);"/>
                    <path id="path94" d="M62.405,76.833L72.35,76.833L72.22,77.097L62.536,77.097L62.405,76.833Z" style="fill:rgb(255,203,0);"/>
                    <path id="path96" d="M62.818,77.672L71.936,77.672L71.807,77.937L62.949,77.937L62.818,77.672Z" style="fill:rgb(255,203,0);"/>
                    <path id="path98" d="M63.231,78.512L71.523,78.512L71.394,78.776L63.363,78.776L63.231,78.512Z" style="fill:rgb(255,203,0);"/>
                    <path id="path100" d="M63.645,79.351L71.109,79.351L70.98,79.616L63.776,79.616L63.645,79.351Z" style="fill:rgb(255,203,0);"/>
                    <path id="path102" d="M64.058,80.191L70.696,80.191L70.567,80.456L64.19,80.456L64.058,80.191Z" style="fill:rgb(255,203,0);"/>
                    <path id="path104" d="M64.472,81.031L70.282,81.031L70.153,81.295L64.603,81.295L64.472,81.031Z" style="fill:rgb(255,203,0);"/>
                    <path id="path106" d="M64.885,81.87L69.869,81.87L69.74,82.135L65.017,82.135L64.885,81.87Z" style="fill:rgb(255,203,0);"/>
                    <path id="path108" d="M65.299,82.71L69.456,82.71L69.326,82.975L65.43,82.975L65.299,82.71Z" style="fill:rgb(255,203,0);"/>
                    <path id="path110" d="M65.712,83.55L69.042,83.55L68.913,83.814L65.844,83.814L65.712,83.55Z" style="fill:rgb(255,203,0);"/>
                </g>
            </g>
        </g>
    </g>
</svg>
