<?xml version="1.0" standalone="no"?>
<!DOCTYPE svg PUBLIC "-//W3C//DTD SVG 20010904//EN"
 "http://www.w3.org/TR/2001/REC-SVG-20010904/DTD/svg10.dtd">
<svg version="1.0" xmlns="http://www.w3.org/2000/svg"
 width="820.000000pt" height="512.000000pt" viewBox="0 0 820.000000 512.000000"
 preserveAspectRatio="xMidYMid meet">

<g transform="translate(0.000000,512.000000) scale(0.100000,-0.100000)"
fill="#000000" stroke="none">
<path d="M6326 4936 c-61 -23 -109 -67 -140 -130 -88 -174 34 -371 229 -369
71 1 117 18 169 63 58 52 76 96 76 190 0 46 -6 95 -14 114 -18 43 -73 97 -122
121 -50 24 -147 30 -198 11z"/>
<path d="M3005 4774 c-77 -40 -115 -101 -115 -184 0 -208 279 -276 377 -91 52
99 13 220 -89 272 -46 23 -131 25 -173 3z"/>
<path d="M1960 4374 c-182 -39 -346 -187 -400 -361 -25 -82 -27 -235 -4 -314
26 -87 74 -168 141 -234 114 -113 239 -160 403 -153 186 9 328 92 431 250 56
87 79 170 79 282 0 158 -49 277 -160 386 -80 79 -161 123 -265 145 -85 18
-140 18 -225 -1z"/>
<path d="M5727 4380 c-123 -21 -242 -111 -300 -229 -57 -117 -48 -282 22 -392
64 -101 167 -169 289 -190 117 -21 250 21 341 106 247 231 125 642 -209 705
-59 11 -74 11 -143 0z"/>
<path d="M3727 4015 c-804 -115 -1460 -692 -1672 -1470 -110 -402 -91 -816 55
-1216 194 -534 637 -981 1172 -1184 233 -88 457 -129 708 -129 186 0 303 14
470 54 369 91 685 268 953 537 316 315 516 724 573 1167 20 157 15 440 -11
581 -76 420 -262 780 -558 1078 -304 307 -656 490 -1102 574 -114 21 -462 26
-588 8z m480 -360 c308 -41 567 -152 822 -353 439 -347 672 -929 597 -1492
-49 -363 -201 -675 -459 -939 -313 -320 -720 -492 -1167 -493 -158 0 -274 13
-390 43 -326 86 -566 223 -790 449 -242 245 -401 562 -456 910 -23 145 -15
433 16 575 95 442 355 817 734 1060 148 95 372 185 543 220 183 37 366 44 550
20z"/>
<path d="M3223 2856 c-393 -75 -602 -344 -604 -777 -1 -235 43 -387 156 -537
113 -150 272 -233 505 -261 485 -61 828 149 917 560 27 125 24 384 -6 494 -72
268 -241 437 -506 506 -103 27 -355 35 -462 15z m283 -360 c157 -42 234 -178
234 -415 0 -262 -73 -400 -232 -439 -168 -42 -321 32 -378 185 -43 114 -42
370 1 486 57 152 210 227 375 183z"/>
<path d="M4551 2324 c-119 -25 -206 -102 -235 -207 -33 -114 -38 -103 51 -111
43 -3 108 -9 144 -12 l67 -6 7 43 c5 31 18 53 42 77 29 27 42 32 85 32 44 0
54 -4 84 -34 38 -38 45 -86 20 -134 -20 -38 -103 -116 -226 -211 -135 -106
-217 -185 -242 -236 -12 -22 -34 -77 -49 -122 l-28 -83 390 0 389 0 0 90 0 90
-180 0 -180 0 28 39 c15 21 76 76 136 122 196 151 258 243 260 380 1 112 -65
214 -169 260 -83 37 -280 48 -394 23z"/>
</g>
</svg>
