<?xml version="1.0" standalone="no"?>
<!DOCTYPE svg PUBLIC "-//W3C//DTD SVG 20010904//EN"
 "http://www.w3.org/TR/2001/REC-SVG-20010904/DTD/svg10.dtd">
<svg version="1.0" xmlns="http://www.w3.org/2000/svg"
 width="200.000000pt" height="200.000000pt" viewBox="0 0 200.000000 200.000000"
 preserveAspectRatio="xMidYMid meet">

<g transform="translate(0.000000,200.000000) scale(0.100000,-0.100000)"
fill="#000000" stroke="none">
<path d="M593 1786 c-39 -33 -39 -95 -1 -133 26 -26 33 -27 148 -31 110 -4
120 -6 120 -24 0 -34 27 -72 117 -159 101 -100 134 -119 215 -126 l58 -6 0 37
0 36 -50 0 c-69 0 -91 13 -193 118 -61 63 -85 95 -81 106 13 33 49 16 119 -54
l69 -70 23 22 24 22 -68 69 c-38 37 -77 74 -88 80 -12 7 -87 14 -195 17 l-175
5 0 25 0 25 195 3 c121 2 209 -1 233 -8 24 -7 69 -41 132 -100 65 -61 107 -93
135 -101 l40 -12 0 -116 c0 -64 5 -133 11 -153 12 -45 49 -68 109 -68 36 0 40
-3 40 -25 0 -41 27 -47 201 -43 129 2 162 6 169 18 6 9 10 145 10 317 0 261
-2 304 -16 317 -13 13 -43 16 -170 16 -88 0 -164 -4 -175 -10 -11 -6 -19 -21
-19 -35 0 -23 -4 -25 -41 -25 -67 0 -102 -27 -114 -87 -4 -23 -11 -33 -25 -33
-21 0 -96 58 -160 125 -80 83 -87 85 -344 85 -223 0 -225 0 -253 -24z m1247
-331 l0 -265 -125 0 -125 0 0 265 0 265 125 0 125 0 0 -265z m-310 -1 l0 -205
-42 3 -43 3 -3 194 c-3 212 -3 211 56 211 l32 0 0 -206z"/>
<path d="M603 1521 c-148 -117 -234 -273 -257 -468 l-7 -53 36 0 c35 0 35 0
35 43 0 59 25 149 63 227 31 63 148 196 206 231 21 13 22 18 12 37 -16 31 -32
28 -88 -17z"/>
<path d="M810 1338 c-45 -12 -96 -52 -121 -92 -57 -92 -46 -188 29 -266 55
-56 109 -75 188 -66 49 6 51 4 89 -34 l39 -40 -27 -28 c-15 -15 -27 -35 -27
-43 0 -17 100 -119 117 -119 6 0 26 12 43 26 l31 27 23 -22 c24 -23 74 -28
108 -10 11 6 26 26 34 45 22 52 3 82 -134 218 l-120 119 5 53 c7 69 -14 128
-65 177 -60 58 -134 78 -212 55z m113 -62 c52 -19 73 -40 93 -93 15 -39 16
-51 4 -95 l-12 -50 137 -138 c96 -97 136 -143 133 -156 -9 -46 -40 -26 -178
111 l-138 138 -47 -12 c-103 -26 -195 44 -195 149 0 67 46 131 106 150 40 12
53 11 97 -4z m181 -505 c14 -15 14 -20 3 -30 -11 -8 -18 -7 -31 8 -10 11 -15
25 -11 30 9 16 20 14 39 -8z"/>
<path d="M806 1189 c-53 -62 -17 -148 62 -149 46 0 71 16 88 56 40 95 -84 172
-150 93z m89 -59 c0 -16 -6 -26 -19 -28 -25 -5 -39 12 -31 38 10 31 50 24 50
-10z"/>
<path d="M1590 957 c0 -59 -25 -149 -63 -227 -34 -69 -136 -185 -193 -221 -38
-23 -40 -27 -20 -54 19 -26 45 -13 125 61 127 117 193 251 215 432 l7 52 -36
0 c-35 0 -35 0 -35 -43z"/>
<path d="M120 873 c-8 -3 -18 -11 -22 -17 -4 -6 -8 -147 -8 -313 0 -261 2
-304 16 -317 13 -13 43 -16 170 -16 88 0 164 4 175 10 11 6 19 21 19 35 0 23
4 25 44 25 56 0 101 34 110 85 5 25 12 35 26 35 21 0 96 -58 160 -125 80 -83
87 -85 344 -85 223 0 225 0 253 24 39 33 39 95 1 133 -26 26 -33 27 -148 31
-110 4 -120 6 -120 24 0 34 -27 72 -117 159 -118 116 -131 122 -275 127 l-116
4 -11 44 c-13 51 -47 74 -111 74 -36 0 -40 3 -40 25 0 14 -8 29 -19 35 -20 10
-304 13 -331 3z m290 -328 l0 -265 -125 0 -125 0 0 265 0 265 125 0 125 0 0
-265z m148 6 c3 -212 3 -211 -55 -211 l-33 0 0 206 0 205 43 -3 42 -3 3 -194z
m320 55 c47 -25 203 -192 196 -210 -13 -33 -49 -16 -119 54 l-69 70 -23 -22
-24 -22 68 -69 c38 -37 77 -74 88 -80 12 -7 87 -14 195 -17 l175 -5 0 -25 0
-25 -195 -3 c-121 -2 -209 1 -233 8 -24 7 -69 41 -132 100 -65 61 -107 93
-135 101 l-40 12 0 74 0 73 110 0 c76 0 120 -4 138 -14z"/>
</g>
</svg>
