<?xml version="1.0" standalone="no"?>
<!DOCTYPE svg PUBLIC "-//W3C//DTD SVG 20010904//EN"
 "http://www.w3.org/TR/2001/REC-SVG-20010904/DTD/svg10.dtd">
<svg version="1.0" xmlns="http://www.w3.org/2000/svg"
 width="283.000000pt" height="258.000000pt" viewBox="0 0 283.000000 258.000000"
 preserveAspectRatio="xMidYMid meet">

<g transform="translate(0.000000,258.000000) scale(0.100000,-0.100000)"
fill="#000000" stroke="none">
<path d="M1060 2461 c-154 -50 -260 -152 -310 -302 -17 -49 -23 -97 -27 -205
l-6 -141 -74 -11 c-220 -31 -359 -194 -418 -488 -6 -29 -4 -31 49 -48 71 -22
193 -103 247 -164 23 -26 56 -76 73 -112 l31 -65 3 -368 3 -367 174 0 175 0 0
344 c0 316 2 349 20 409 25 80 88 168 161 224 53 41 191 113 216 113 18 0 16
24 -7 114 -62 234 -207 381 -405 409 l-77 10 4 146 c3 128 6 151 26 189 31 58
87 113 147 142 l50 25 420 0 c390 0 424 -1 470 -19 103 -40 180 -145 192 -263
5 -44 9 -53 22 -48 36 14 70 16 104 7 l37 -10 0 47 c0 194 -152 385 -345 436
-49 12 -132 15 -480 14 -374 0 -426 -2 -475 -18z m-337 -998 c9 -87 82 -120
138 -64 23 23 29 39 29 70 0 47 8 51 37 19 33 -37 43 -64 43 -115 0 -107 -95
-185 -197 -163 -129 29 -175 181 -85 283 23 26 29 21 35 -30z"/>
<path d="M2245 1921 c-11 -5 -29 -19 -40 -31 -20 -22 -20 -38 -23 -705 l-2
-683 -148 -62 c-81 -34 -157 -66 -169 -71 -52 -20 -59 -104 -13 -150 l29 -30
406 3 407 3 24 28 c40 47 29 128 -19 146 -12 5 -88 37 -169 71 l-148 62 -2
684 -3 684 -25 25 c-28 27 -74 39 -105 26z"/>
<path d="M210 965 l0 -244 35 -7 c58 -10 120 -57 144 -107 20 -42 22 -57 19
-231 l-3 -186 78 0 78 0 -3 362 -3 363 -34 63 c-21 38 -58 84 -90 113 -53 47
-178 119 -207 119 -12 0 -14 -45 -14 -245z"/>
<path d="M1331 1189 c-75 -33 -168 -107 -211 -166 -67 -95 -70 -113 -70 -495
l0 -338 75 0 75 0 0 183 c0 154 3 188 19 222 24 54 81 102 136 116 l45 11 0
244 c0 189 -3 244 -12 243 -7 0 -33 -9 -57 -20z"/>
<path d="M153 631 c-69 -32 -75 -53 -71 -262 l3 -179 31 -31 c60 -60 161 -48
204 24 18 28 20 51 20 195 0 193 -8 219 -74 252 -52 24 -60 25 -113 1z"/>
<path d="M1350 633 c-19 -10 -45 -33 -57 -52 -22 -32 -23 -44 -23 -193 0 -180
9 -215 62 -248 52 -33 122 -23 165 24 l33 36 0 177 c0 159 -2 181 -20 210 -34
56 -102 75 -160 46z"/>
</g>
</svg>
