<?xml version="1.0" standalone="no"?>
<!DOCTYPE svg PUBLIC "-//W3C//DTD SVG 20010904//EN"
 "http://www.w3.org/TR/2001/REC-SVG-20010904/DTD/svg10.dtd">
<svg version="1.0" xmlns="http://www.w3.org/2000/svg"
 width="360.000000pt" height="360.000000pt" viewBox="0 0 360.000000 360.000000"
 preserveAspectRatio="xMidYMid meet">

<g transform="translate(0.000000,360.000000) scale(0.100000,-0.100000)"
fill="#000000" stroke="none">
<path d="M1450 2961 c-154 -50 -260 -152 -310 -302 -17 -49 -23 -97 -27 -205
l-6 -140 -74 -11 c-220 -32 -359 -195 -418 -489 -6 -29 -4 -31 49 -48 71 -22
193 -103 247 -164 23 -26 56 -76 73 -112 l31 -65 3 -368 3 -367 174 0 175 0 0
344 c0 395 5 426 83 533 65 87 204 184 301 209 26 6 27 9 21 48 -32 197 -142
369 -281 437 -38 19 -91 35 -139 42 l-77 10 4 146 c3 128 6 151 26 189 31 58
87 113 147 142 l50 25 420 0 c390 0 424 -1 470 -19 103 -40 180 -145 192 -263
5 -44 9 -53 22 -48 36 14 70 16 104 7 l37 -10 0 47 c0 194 -152 385 -345 436
-49 12 -132 15 -480 14 -374 0 -426 -2 -475 -18z m-337 -998 c9 -87 82 -120
138 -64 23 23 29 39 29 70 0 47 8 51 37 19 33 -37 43 -64 43 -115 0 -107 -95
-185 -197 -163 -129 29 -175 181 -85 283 23 26 29 21 35 -30z"/>
<path d="M2635 2421 c-11 -5 -29 -19 -40 -31 -20 -22 -20 -38 -23 -705 l-2
-683 -148 -62 c-81 -34 -157 -66 -169 -71 -52 -20 -59 -104 -13 -150 l29 -30
406 3 407 3 24 28 c29 34 32 95 7 125 -10 11 -81 46 -158 77 -77 32 -150 62
-162 68 l-23 10 -2 683 -3 684 -25 25 c-28 27 -74 39 -105 26z"/>
<path d="M600 1466 l0 -244 33 -7 c52 -11 105 -46 134 -88 l28 -40 0 -199 0
-198 78 0 78 0 -3 363 -3 362 -34 63 c-21 38 -58 84 -90 113 -53 47 -178 119
-207 119 -12 0 -14 -44 -14 -244z"/>
<path d="M1721 1689 c-75 -33 -168 -107 -211 -166 -67 -95 -70 -113 -70 -495
l0 -338 75 0 75 0 0 183 c0 154 3 188 19 222 24 54 81 102 136 116 l45 11 0
244 c0 189 -3 244 -12 243 -7 0 -33 -9 -57 -20z"/>
<path d="M543 1131 c-66 -31 -73 -53 -73 -246 0 -185 7 -211 63 -245 62 -38
148 -15 182 49 12 23 15 65 15 191 0 191 -8 218 -74 250 -52 24 -60 25 -113 1z"/>
<path d="M1756 1140 c-34 -11 -63 -36 -82 -72 -20 -39 -20 -325 0 -373 22 -51
69 -77 130 -72 42 4 55 10 83 41 l33 36 0 177 c0 159 -2 181 -20 210 -29 49
-87 70 -144 53z"/>
</g>
</svg>
